<svg width="197" height="174" viewBox="0 0 197 174" fill="none" xmlns="http://www.w3.org/2000/svg">
<path d="M54.6745 159.113C53.1402 162.104 52.3613 164.884 51.5669 168.148C51.2164 169.577 52.2289 170.732 53.6153 170.842C82.7907 173.278 112.231 173.137 141.476 173.739C143.112 173.77 144.576 172.302 144.545 170.662C144.514 168.874 144.358 167.25 143.914 165.524C143.291 163.095 139.529 163.025 138.937 165.524C138.532 167.265 138.4 168.874 138.408 170.662L141.476 167.585C112.239 166.89 82.8452 165.438 53.6153 166.578C54.324 167.289 55.0328 167.999 55.7415 168.71C56.1231 165.469 56.3646 162.713 55.9907 159.464C55.9206 158.832 55.0328 158.418 54.6745 159.105V159.113Z" fill="#F8F7FF"/>
<path d="M98.4766 31.6143C130.372 31.6143 156.228 25.713 156.228 18.4334C156.228 11.1537 130.372 5.25244 98.4766 5.25244C66.5816 5.25244 40.7256 11.1537 40.7256 18.4334C40.7256 25.713 66.5816 31.6143 98.4766 31.6143Z" stroke="#F8F7FF" stroke-width="9" stroke-miterlimit="10"/>
<path d="M77.9385 113.995C88.0401 116.182 89.9482 103.797 88.632 96.4805C86.5525 84.9784 75.8123 81.3943 66.692 76.6154C57.7899 71.9459 50.5934 63.9265 46.7459 54.6108C44.5418 49.2697 43.5994 43.5773 43.4592 37.8223C43.319 31.9034 44.8611 25.5862 43.7941 19.7766C43.2489 16.7938 39.3547 17.5278 38.4591 19.7766C36.5898 24.5087 36.8079 30.6306 36.769 35.6593C36.73 40.7818 37.1662 45.9745 38.4513 50.9486C40.5463 59.0929 44.8689 66.761 50.8193 72.6955C53.7088 75.5769 56.9877 78.1537 60.4769 80.2542C64.7761 82.8389 69.566 84.3928 73.9898 86.7432C78.6005 89.1951 82.1832 92.6699 83.219 97.972C84.1692 102.876 83.7253 110.887 77.9541 112.715C77.3699 112.902 77.2921 113.839 77.9541 113.987L77.9385 113.995Z" fill="#F8F7FF"/>
<path d="M119.583 112.73C114.077 110.989 113.5 103.664 114.186 98.9165C115.019 93.1459 118.563 89.4212 123.54 86.7585C127.784 84.4862 132.395 83.0026 136.554 80.5663C140.238 78.4111 143.688 75.725 146.71 72.7108C152.668 66.7685 156.96 59.1161 159.078 50.9639C160.309 46.2319 160.76 41.2734 160.76 36.3931C160.76 31.1613 161.01 24.7036 159.07 19.792C158.182 17.5431 154.288 16.8013 153.735 19.792C152.668 25.6094 154.203 31.9109 154.07 37.8376C153.938 43.577 153.003 49.3085 150.783 54.6261C146.889 63.9418 139.763 71.9534 130.837 76.6308C121.764 81.3862 110.907 85.0016 108.897 96.4958C107.62 103.812 109.45 116.205 119.591 114.011C120.253 113.87 120.175 112.925 119.591 112.738L119.583 112.73Z" fill="#F8F7FF"/>
<path d="M62.7901 29.6855C62.3773 34.5971 61.8944 39.3291 60.5548 44.0923C59.4255 48.1216 58.6934 52.5881 57.2681 56.469C56.7619 57.8433 58.2806 59.1083 59.5579 58.7647C65.1889 57.2576 69.9398 55.001 74.4883 51.3231C73.4524 51.1904 72.4166 51.0576 71.3885 50.9249C73.3356 55.3836 75.6721 59.7252 78.8186 63.4577C79.8545 64.6836 81.6848 63.606 81.7626 62.2317C82.0352 57.4919 83.5384 52.7052 84.107 47.9654C84.6755 43.2568 85.4466 38.4389 85.5634 33.6991C85.6179 31.3253 81.8795 30.7396 81.3654 33.1291C80.423 37.4941 80.1037 42.0387 79.5429 46.4662C78.9043 51.5027 79.2626 56.8204 78.3669 61.7788C79.4183 61.6383 80.4698 61.5055 81.5212 61.365C79.0289 57.4841 76.6768 53.7282 74.9945 49.4022C74.5895 48.3636 73.2032 47.3641 72.0894 48.2153C68.0473 51.3309 63.4988 53.8453 58.561 55.1727C59.2619 56.0864 59.9629 57 60.6638 57.9136C65.4304 49.6443 69.0442 38.6888 67.4008 29.0608C66.9257 26.2731 62.9848 27.218 62.7745 29.6855H62.7901Z" fill="#F8F7FF"/>
<path d="M40.6087 32.3407C40.7489 21.354 28.5133 11.9524 18.0145 13.561C6.55776 15.3179 -0.412865 30.2245 0.0154974 40.7661C0.521744 53.0959 7.2042 64.0201 18.1235 69.8063C21.052 71.3524 24.253 71.8834 27.4774 72.4378C29.1831 72.7267 38.2566 73.3905 36.7223 76.4905C36.0369 77.8726 33.8016 77.9351 32.9371 79.4499C31.9947 81.1053 32.2907 83.1278 33.2175 84.7285C36.1381 89.7807 43.1321 88.5313 47.1509 85.689C51.9097 82.3157 54.2695 76.6701 54.8147 71.0088C55.1808 67.1592 48.7943 67.0343 48.7398 71.0088C48.6619 76.2718 45.4141 83.159 39.2535 83.2215C37.47 83.4635 36.4964 82.6983 36.3328 80.9258C36.7846 81.0038 37.2363 81.0351 37.688 81.0273C38.2332 80.7149 38.9887 80.6603 39.5884 80.3011C41.185 79.3406 42.3066 77.7633 42.5558 75.9282C43.2645 70.759 38.2722 68.5804 34.0976 67.7058C30.9744 67.0577 27.789 66.7453 24.6736 66.0504C21.1454 65.2617 18.4974 63.4033 15.787 61.0763C13.7231 59.3037 11.3632 57.7108 9.94572 55.337C8.31794 52.5962 7.2042 49.4415 6.40978 46.3649C4.61845 39.4074 5.70882 33.3011 9.64197 27.3432C13.1234 22.0802 17.5861 17.6995 24.3932 19.7376C30.2968 21.5023 34.596 27.2885 36.6132 32.8873C37.3687 34.98 40.562 34.7457 40.5931 32.3485L40.6087 32.3407Z" fill="#F8F7FF"/>
<path d="M44.9935 60.8889C38.3499 60.2174 31.6675 59.2725 25.834 55.743C23.2638 54.1891 20.717 52.2682 18.7387 49.9725C16.1608 46.974 15.8337 43.1946 15.9349 39.3684C16.0517 35.0893 17.8976 31.3099 22.8276 32.5124C25.8807 33.2543 28.6767 35.0893 30.4603 37.6895C33.6224 42.2966 34.3623 49.0667 40.0322 51.5342C42.2442 52.4947 45.009 49.7929 42.8516 47.872C39.0976 44.5299 37.9216 40.2586 35.1645 36.2215C33.0772 33.1606 30.1488 30.5056 26.8387 28.8346C19.4864 25.1411 12.0018 28.5301 10.8413 36.8853C9.5562 46.1931 12.8351 53.4161 20.4755 58.6947C27.563 63.5829 36.948 66.394 45.3985 64.0201C47.2209 63.5048 46.6913 61.0685 44.9779 60.8889H44.9935Z" fill="#F8F7FF"/>
<path d="M160.418 32.8793C162.427 27.3118 166.742 21.4553 172.638 19.7296C179.468 17.7306 183.892 22.0488 187.389 27.3352C191.338 33.3088 192.397 39.3917 190.621 46.357C189.881 49.254 188.83 52.1431 187.381 54.759C185.901 57.4374 183.526 59.1162 181.244 61.0684C178.752 63.2079 176.275 65.0117 173.082 65.8941C169.779 66.7999 166.29 67.0029 162.933 67.6979C158.751 68.5568 153.766 70.7588 154.475 75.9203C154.724 77.7553 155.838 79.3327 157.443 80.2931C158.042 80.6523 158.806 80.707 159.343 81.0193C159.795 81.0271 160.246 80.9959 160.698 80.9178C160.535 82.6904 159.561 83.4556 157.777 83.2136C151.625 83.1511 148.377 76.2561 148.291 71.0009C148.229 67.0341 141.842 67.1435 142.216 71.0009C142.684 75.9125 144.483 80.8397 148.151 84.2833C151.617 87.5395 157.349 89.7415 161.718 86.9148C164.662 85.0095 165.924 80.504 162.894 78.0911C162.295 77.6148 160.932 77.4742 160.488 76.7871C159.234 74.8505 161.57 74.0775 163.05 73.6558C166.828 72.5939 170.823 72.4689 174.616 71.4616C180.247 69.9702 185.317 65.6286 189.359 61.5447C193.386 57.4686 195.559 50.8391 196.517 45.3028C197.576 39.1965 196.961 33.0511 194.173 27.4836C191.704 22.5642 188.246 17.0044 183.035 14.7009C171.695 9.6956 156.282 19.8546 156.446 32.3249C156.477 34.6987 159.67 34.972 160.426 32.8637L160.418 32.8793Z" fill="#F8F7FF"/>
<path d="M151.625 64.02C159.904 66.347 169.008 63.6998 176.033 59.0459C183.97 53.7907 187.506 46.4428 186.182 36.8851C185.068 28.8423 177.973 25.1956 170.691 28.6002C167.31 30.1853 164.374 32.7466 162.193 35.7685C159.226 39.8758 158.066 44.4048 154.179 47.8718C152.037 49.7771 154.763 52.5101 156.999 51.534C162.676 49.0665 163.416 42.2887 166.571 37.6894C168.346 35.1048 171.166 33.2385 174.203 32.5123C179.141 31.3332 180.979 35.0657 181.096 39.3682C181.197 43.1866 180.878 46.9894 178.292 49.9723C176.306 52.268 173.783 54.1812 171.197 55.7429C165.371 59.2724 158.673 60.2172 152.037 60.8887C150.34 61.0605 149.787 63.5046 151.617 64.02H151.625Z" fill="#F8F7FF"/>
<path d="M78.1332 114.331C82.9231 118.094 91.5215 117.025 97.1603 117.001C100.969 116.986 104.762 116.884 108.563 116.681C111.865 116.501 115.564 116.704 118.742 115.806C119.957 115.463 120.167 113.323 118.742 113.12C112.94 112.3 106.39 113.729 100.509 113.815C96.7242 113.87 92.9546 113.722 89.1772 113.479C86.1397 113.284 82.6895 113.316 79.8701 112.058C78.5227 111.457 76.7157 113.23 78.1254 114.331H78.1332Z" fill="#F8F7FF"/>
<path d="M83.7099 113.472C81.1475 112.636 77.5648 111.809 75.7501 114.292C73.0397 117.985 71.1316 122.998 69.2468 127.176C68.5225 128.792 70.602 130.893 71.9338 129.253C73.9899 126.731 75.6333 123.927 77.4947 121.265C79.3795 118.563 80.9138 118.594 84.0136 118.54C86.2644 118.5 88.5231 118.43 90.7739 118.368C99.7851 118.118 108.812 117.868 117.831 117.868C120.814 117.868 120.814 113.144 117.831 113.222C107.807 113.464 97.7913 113.589 87.7676 113.948C84.5666 114.065 79.5586 113.308 77.0352 115.658C73.7718 118.696 73.4603 123.803 69.8621 126.559L72.2064 128.909C73.8186 126.02 75.2828 123.037 76.7704 120.078C77.0975 119.43 78.071 116.658 78.624 116.236C79.5353 115.541 82.2768 115.877 83.4061 115.744C84.6522 115.596 85.0183 113.901 83.7099 113.48V113.472Z" fill="#F8F7FF"/>
<path d="M116.211 115.736C117.418 115.877 119.98 115.549 120.993 116.228C121.748 116.736 122.457 119.297 122.847 120.07C124.334 123.022 125.791 126.012 127.411 128.902L129.755 126.551C126.336 123.935 125.814 119.25 123.033 116.095C120.502 113.237 115.315 114.065 111.849 113.94C101.833 113.573 91.8097 113.456 81.786 113.214C78.8031 113.144 78.7953 117.86 81.786 117.86C90.805 117.86 99.8318 118.11 108.843 118.36C112.87 118.469 118.797 117.275 121.569 120.499C123.867 123.17 125.44 126.489 127.683 129.237C129.007 130.861 131.102 128.792 130.37 127.16C128.493 122.99 126.577 117.969 123.867 114.276C122.044 111.793 118.469 112.621 115.907 113.456C114.614 113.878 114.957 115.572 116.211 115.721V115.736Z" fill="#F8F7FF"/>
<path d="M100.556 129.3C94.0526 128.253 87.2533 128.074 80.6799 127.535C73.9663 126.981 67.4007 127.004 60.7572 128.246C60.0095 128.386 59.2384 129.159 59.0983 129.909C56.863 141.809 54.4642 153.678 52.2211 165.579C51.6915 168.397 55.9673 169.631 56.5514 166.773C58.9814 154.92 61.2479 143.027 63.6701 131.174L62.0111 132.837C68.6468 131.603 75.4539 131.736 82.1753 132.041C88.2113 132.314 94.5667 133.235 100.556 132.166C101.958 131.916 101.981 129.534 100.556 129.308V129.3Z" fill="#F8F7FF"/>
<path d="M62.3381 131.713C65.5158 131.4 68.8103 132.259 71.9958 132.533C75.0021 132.79 78.024 132.861 81.0381 132.931C87.5025 133.079 93.9824 132.907 100.455 132.861C103.531 132.837 103.539 128.035 100.455 128.066C93.5151 128.136 86.5835 128.136 79.6518 128.386C73.9039 128.589 67.1202 127.184 61.754 129.526C60.7026 129.987 61.2166 131.822 62.3459 131.713H62.3381Z" fill="#F8F7FF"/>
<path d="M96.0231 132.158C102.02 133.228 108.36 132.299 114.404 132.033C121.125 131.736 127.924 131.596 134.568 132.83C134.015 132.275 133.462 131.721 132.909 131.166C135.339 143.02 137.605 154.912 140.028 166.766C140.612 169.616 144.888 168.398 144.358 165.571C142.123 153.671 139.724 141.802 137.481 129.901C137.341 129.159 136.57 128.379 135.822 128.238C129.178 127.004 122.613 126.973 115.899 127.527C109.326 128.074 102.526 128.246 96.0231 129.292C94.5978 129.519 94.6212 131.9 96.0231 132.15V132.158Z" fill="#F8F7FF"/>
<path d="M134.825 129.534C129.428 127.176 122.699 128.597 116.927 128.394C109.996 128.144 103.056 128.144 96.1244 128.074C93.048 128.043 93.0402 132.845 96.1244 132.868C102.589 132.915 109.077 133.087 115.541 132.939C118.555 132.868 121.577 132.798 124.583 132.54C127.769 132.267 131.055 131.408 134.241 131.721C135.362 131.83 135.876 129.995 134.833 129.534H134.825Z" fill="#F8F7FF"/>
<path d="M47.7117 25.9608C53.5453 19.7452 59.2697 13.6935 66.1002 8.53205C67.1438 7.74338 66.0301 6.25194 64.9942 7.09527C58.3819 12.4754 51.8318 18.324 46.6292 25.1175C46.1463 25.75 47.1899 26.5309 47.7195 25.9608H47.7117Z" fill="#F8F7FF"/>
<path d="M54.2617 27.3585C60.7572 20.5885 67.4397 13.9512 73.8573 7.11082C74.9088 5.98638 73.3277 4.44809 72.1906 5.43978C65.0954 11.6086 58.7323 18.9487 53.1402 26.4918C52.6495 27.1555 53.7087 27.9442 54.2695 27.3663L54.2617 27.3585Z" fill="#F8F7FF"/>
<path d="M60.5627 29.045C64.3245 24.9065 68.2888 20.8929 72.2531 16.9495C76.2018 13.0218 80.7113 9.42984 84.403 5.28347C85.0962 4.50261 84.1849 3.09706 83.2269 3.75299C74.0522 9.99986 66.5286 19.7606 59.9396 28.5609C59.667 28.9279 60.2667 29.3808 60.5705 29.045H60.5627Z" fill="#F8F7FF"/>
<path d="M69.379 29.6386C73.5458 25.5547 77.6035 21.3615 81.7548 17.2698C85.3686 13.7091 90.5634 10.1796 92.9856 5.68184C93.1258 5.41635 92.8844 5.00249 92.5573 5.12743C87.7129 6.97807 83.6707 11.999 80.0958 15.6144C75.9212 19.831 72.0504 24.2116 68.5067 28.9749C68.125 29.4825 68.935 30.0603 69.3634 29.6386H69.379Z" fill="#F8F7FF"/>
<path d="M77.8062 30.9503C81.9496 27.1319 85.6491 22.8138 89.5978 18.7845C93.1883 15.1301 97.7212 11.6709 100.673 7.49331C101.296 6.61094 100.097 5.54897 99.2399 6.05653C94.7304 8.7505 90.8128 13.6074 87.2691 17.4493C83.5618 21.4707 79.7845 25.578 76.8326 30.1929C76.4432 30.8098 77.3 31.411 77.8062 30.9503Z" fill="#F8F7FF"/>
<path d="M86.4356 31.778C90.6258 27.7722 94.59 23.5633 98.6011 19.3623C102.301 15.4814 106.499 11.8504 109.77 7.60255C110.385 6.80607 109.17 5.60355 108.368 6.197C103.905 9.53127 100.12 14.0446 96.3269 18.0973C92.4638 22.2281 88.7955 26.4525 85.4465 30.9971C85.0103 31.5906 85.9371 32.2465 86.4434 31.7624L86.4356 31.778Z" fill="#F8F7FF"/>
<path d="M96.2569 32.6136C100.361 28.4672 104.333 24.2037 108.306 19.9324C111.974 15.9813 116.18 12.2722 119.373 7.92281C119.965 7.11853 118.797 5.95504 117.994 6.54069C113.454 9.82811 109.653 14.4039 105.868 18.5113C102.02 22.6967 98.422 27.0929 95.1042 31.7078C94.6057 32.4028 95.6883 33.1992 96.2724 32.6058L96.2569 32.6136Z" fill="#F8F7FF"/>
<path d="M106.382 31.4425C110.946 27.874 114.871 23.3137 118.898 19.1518C122.753 15.1694 126.741 11.4056 130.697 7.54038C131.71 6.55649 130.432 5.08848 129.248 5.66631C124.318 8.08698 120.603 13.2407 116.974 17.2308C113.033 21.5646 108.679 25.8125 105.361 30.6616C104.91 31.3176 105.844 31.8564 106.374 31.4425H106.382Z" fill="#F8F7FF"/>
<path d="M117.714 29.7012C121.616 26.2342 125.471 22.7281 129.225 19.1049C132.621 15.8253 136.507 12.6472 139.28 8.81319C139.833 8.04795 138.743 6.98598 137.979 7.50915C134.085 10.1875 130.814 14.0215 127.465 17.3402C123.758 21.0102 120.167 24.7818 116.616 28.608C115.93 29.3498 116.966 30.3727 117.714 29.709V29.7012Z" fill="#F8F7FF"/>
<path d="M129.389 28.2563C132.792 25.2422 136.235 22.2827 139.599 19.2217C142.575 16.52 146.227 13.826 148.431 10.4371C149.047 9.49223 147.847 8.41464 146.936 8.93782C143.431 10.929 140.518 14.4507 137.644 17.254C134.397 20.4243 131.242 23.6805 128.034 26.8898C127.154 27.7722 128.47 29.0684 129.397 28.2563H129.389Z" fill="#F8F7FF"/>
<path d="M144.342 40.2894C143.782 45.5212 142.598 50.7374 140.059 55.3913C138.859 57.5777 137.418 59.7641 135.806 61.6616C134.622 63.0593 133.205 64.1057 133.423 66.0656C133.478 66.5185 133.696 66.8777 134.147 67.0183C138.602 68.4394 143.345 60.0842 144.919 56.8827C147.551 51.526 148.634 45.7555 147.637 39.8444C147.294 37.8219 144.522 38.5637 144.335 40.2894H144.342Z" fill="#F8F7FF"/>
<path d="M128.104 68.127C127.457 68.4706 126.826 68.7439 126.242 69.1968C125.9 69.4623 125.471 69.7669 125.027 70.0636C123.742 70.9303 122.223 72.9684 123.688 74.4286C124.965 75.7092 126.881 75.1079 128.143 74.1787C128.68 73.7805 129.256 73.3744 129.739 72.9137C130.284 72.3905 130.65 71.6878 131.001 71.024C132.006 69.1266 129.996 67.1119 128.104 68.1192V68.127Z" fill="#F8F7FF"/>
<path d="M93.0324 139.083L86.311 143.667L89.6678 148.86L94.2786 146.876L93.3362 157.114H89.2161L88.9124 162.767H103.695L104.232 157.496L99.123 157.114L100.455 139.083H93.0324Z" fill="#F8F7FF"/>
<path d="M106.32 145.393C106.491 145.393 118.812 145.791 118.812 145.791V148.626H106.6L106.32 145.393Z" fill="#F8F7FF"/>
<path d="M106.32 140.458C106.491 140.458 118.812 140.856 118.812 140.856V143.691H106.6L106.32 140.458Z" fill="#F8F7FF"/>
<path d="M111.997 138.053C111.997 138.225 111.6 150.578 111.6 150.578H108.773V138.334L111.997 138.053Z" fill="#F8F7FF"/>
<path d="M116.92 138.053C116.92 138.225 116.523 150.578 116.523 150.578H113.695V138.334L116.92 138.053Z" fill="#F8F7FF"/>
</svg>
