<svg width="218" height="192" viewBox="0 0 218 192" fill="none" xmlns="http://www.w3.org/2000/svg">
<path d="M183.1 59.9053C180.109 60.6364 179.027 62.5468 177.957 64.2981C176.033 67.4489 174.351 70.7502 172.504 73.956C171.513 75.6819 170.499 77.429 168.836 78.6268C167.758 79.4028 166.532 79.8627 165.28 78.9825C164.042 78.1151 163.865 76.8364 164.401 75.5557C165.114 73.8594 165.96 72.2056 166.825 70.5836C168.628 67.1953 170.78 63.9662 171.836 60.2386C172.228 58.8497 173.508 57.0157 171.745 56.0082C170.079 55.0516 168.939 56.7584 167.916 57.9266C165.654 60.5154 163.995 63.5071 162.164 66.3928C160.793 68.5554 159.414 70.716 158.022 72.8553C157.318 73.9409 156.441 74.8844 155.292 75.5076C154.349 76.0291 153.355 75.9611 152.453 75.3757C151.482 74.7458 151.321 73.7597 151.533 72.7313C151.857 71.1813 152.671 69.8349 153.414 68.4525C155.569 64.4494 158.172 60.6754 159.662 56.335C160.162 54.8741 161.259 52.7962 159.892 52.0135C158.091 50.9784 157.001 53.1751 156.025 54.4811C153.096 58.3632 151.12 62.8074 148.759 67.0204C147.928 68.5068 147.047 69.9719 146.082 71.3797C145.22 72.6243 144.02 73.4871 142.435 72.785C140.815 72.0744 140.705 70.5964 141.14 69.1461C141.584 67.6533 142.157 66.1924 142.833 64.7845C144.797 60.6796 146.939 56.6553 148.788 52.5037C149.346 51.2463 150.738 49.2512 149.042 48.3773C147.515 47.5819 146.433 49.6364 145.536 50.845C142.639 54.744 140.648 59.1755 138.198 63.3482C137.192 65.0614 136.136 66.7619 134.924 68.3245C134.02 69.4863 132.731 70.3089 131.194 69.3756C129.837 68.5505 129.966 67.168 130.453 65.9382C131.339 63.6906 132.34 61.4898 133.347 59.2995C134.779 56.2059 136.367 53.1697 137.675 50.0273C138.46 48.1508 139.501 46.1853 138.539 43.8187C136.132 44.5605 135.025 46.4285 134.013 48.2392C131.785 52.2062 129.758 56.2772 127.586 60.2761C126.644 62.0232 125.628 63.7428 124.522 65.3859C123.476 66.9358 121.917 67.7901 120.119 66.8908C118.504 66.0911 118.258 64.471 118.664 62.8065C119.071 61.142 119.789 59.6005 120.61 58.0845C122.311 54.9592 123.947 51.8085 125.561 48.6344C126.466 46.8512 127.115 44.9768 127.242 42.7291C125.762 42.801 125.493 43.9863 125.02 44.8683C122.563 49.3549 118.893 51.2139 113.711 50.7402C101.343 49.5996 89.0437 48.0073 76.8876 45.4057C72.7052 44.5059 68.6032 43.2478 64.8128 41.1755C58.5203 37.7309 55.5938 32.3783 56.1078 25.3257C56.4981 19.9991 58.1593 15.0078 61.2999 10.602C65.3339 4.93247 70.6143 2.95278 77.3493 4.69688C82.9303 6.14393 87.888 9.00312 92.9155 11.6906C101.325 16.2043 109.549 21.1039 118.641 24.2203C119.989 24.6827 121.355 25.1049 122.711 25.5335C123.859 25.892 124.902 25.9092 125.879 24.9996C130.021 21.105 135.167 20.8217 140.341 21.5095C155.882 23.5773 170.708 28.0708 184.677 35.2424C187.334 36.6084 189.794 38.3306 192.063 40.3115C197.05 44.6826 198.234 50.0327 196.198 56.1648C195.532 58.1791 194.718 60.2104 193.596 61.9936C190.027 67.6441 186.312 73.1949 182.588 78.7435C181.64 80.1556 180.44 81.415 178.877 82.2142C177.8 82.7653 176.704 82.9242 175.649 82.1564C174.557 81.361 174.53 80.2732 174.79 79.0858C175.26 76.9506 176.512 75.1908 177.522 73.3164C179.348 69.9431 181.385 66.6673 182.525 62.9693C182.768 62.1742 182.827 61.3239 183.081 59.9096L183.1 59.9053ZM128.876 49.534C130.859 49.5873 130.795 47.6704 131.553 46.6251C132.892 44.7699 134.101 42.8193 136.151 41.6639C139.022 40.038 141.258 41.317 141.421 44.5741C141.516 46.3277 140.997 47.9371 140.369 49.5464C138.663 53.9228 136.591 58.1358 134.455 62.315C133.785 63.6253 132.985 64.9123 133.095 67.2194C135.165 64.8978 136.023 62.6524 137.112 60.5723C138.959 57.0421 140.677 53.4524 142.611 49.9709C143.721 47.9863 145.138 46.1417 147.337 45.1857C150.374 43.8715 152.938 45.6467 152.55 48.9376C152.358 50.6107 151.852 52.3133 151.139 53.8294C149.261 57.8113 147.186 61.7084 145.201 65.6458C144.575 66.8862 143.563 68.048 144.121 69.7912C145.416 68.6908 145.906 67.3444 146.583 66.1168C148.627 62.3745 150.664 58.63 152.821 54.9429C153.818 53.2276 155.011 51.5971 156.684 50.429C158.028 49.4941 159.481 48.9197 161.052 49.8975C162.445 50.7586 162.686 52.1793 162.526 53.653C162.317 55.6462 161.782 57.5758 160.857 59.3632C159.094 62.7705 157.243 66.1375 155.52 69.564C154.893 70.8128 153.755 72.0065 154.216 73.9234C156.18 72.9992 156.946 71.4514 157.803 70.0435C159.863 66.6384 161.838 63.176 163.898 59.7708C165.158 57.6887 166.697 55.7933 168.614 54.2986C169.973 53.2323 171.545 52.5073 173.333 53.6654C175.027 54.764 175.394 56.2972 174.958 58.1165C174.657 59.3569 174.37 60.6186 173.91 61.8102C172.619 65.137 170.807 68.1987 169.146 71.3431C168.257 73.0223 166.776 74.5446 166.895 76.8899C168.868 76.2201 169.546 74.5875 170.397 73.169C172.51 69.6239 174.496 66.0109 176.632 62.4807C177.661 60.7824 178.86 59.1625 180.616 58.0962C181.778 57.386 183.023 57.1021 184.256 57.8423C185.519 58.608 185.724 59.8846 185.536 61.2162C185.187 63.625 184.435 65.915 183.347 68.1031C181.903 70.9952 180.474 73.9 178.972 76.949C180.107 76.8899 180.484 76.2453 180.817 75.7067C184.121 70.3955 187.652 65.2221 190.389 59.5715C195.176 49.6929 194.075 45.2737 184.596 39.8353C171.058 32.0595 156.347 27.6847 140.843 26.0135C137.29 25.6312 133.49 25.5479 130.52 27.8248C126.475 30.9328 122.389 30.6247 118.025 29.004C116.025 28.2615 113.97 27.6314 111.991 26.8401C102.976 23.2296 94.4157 18.6693 85.8296 14.1746C82.2986 12.3292 78.81 10.3863 74.9377 9.25764C71.4606 8.24562 68.7226 9.22908 66.6302 12.0045C63.4681 16.2067 61.6877 20.916 61.631 26.2448C61.5861 30.5493 63.5479 33.5798 67.2936 35.5418C69.8254 36.8675 72.5057 37.8158 75.2792 38.5711C88.9874 42.2629 103.091 43.2512 117.113 44.8501C119.202 45.0922 120.702 44.4393 121.865 42.7474C122.921 41.2271 124.048 39.7515 125.556 38.6321C126.843 37.6739 128.253 36.8004 129.866 37.7167C131.497 38.6373 131.577 40.3061 131.187 41.8667C130.535 44.479 129.694 47.0532 128.955 49.6888C128.732 50.1828 128.467 50.6662 128.313 51.1773C128.205 51.5377 127.869 51.9766 128.382 52.4199C128.549 51.9301 128.734 51.5526 128.795 51.1625C128.882 50.6345 128.873 50.0917 128.898 49.5573L128.876 49.534Z" fill="#F8F7FF"/>
<path d="M111.828 136.444C110.373 135.167 109.069 134.097 107.855 132.929C103.338 128.581 102.339 123.375 105.001 117.742C110.052 107.066 121.77 104.86 129.62 112.624C130.669 113.658 131.628 114.091 132.99 113.776C142.048 111.714 151.392 111.727 160.512 110.096C162.336 109.769 164.169 109.511 165.985 109.148C170.548 108.252 170.526 108.239 169.57 103.874C168.396 98.5176 169.016 93.6105 173.554 89.9385C178.208 86.1636 183.474 85.8294 188.861 87.9698C194.624 90.252 197.326 96.8684 195.423 103.387C194.017 108.196 194.003 108.218 198.084 111.461C200.011 112.991 201.623 114.778 202.809 116.917C207.151 124.761 202.719 133.649 193.841 134.957C189.738 135.563 185.8 134.675 182.28 132.72C179.277 131.044 176.357 130.976 173.216 131.677C163.333 133.904 153.704 136.999 144.042 139.982C142.956 140.315 141.941 140.867 140.904 141.323C138.62 142.321 137.344 143.956 137.132 146.533C136.986 148.357 136.571 150.2 136.042 151.961C133.385 160.749 126.635 165.123 119.139 162.988C110.763 160.592 105.73 151.503 108.028 143.109C108.717 140.593 110.188 138.564 111.812 136.455L111.828 136.444ZM126.2 116.158C120.719 112.661 115.566 113.972 112.161 118.577C109.376 122.352 110.236 130.416 115.384 135.559C116.568 136.74 116.828 137.499 115.903 138.736C115.477 139.304 115.006 139.845 114.624 140.441C111.057 145.985 112.595 153.359 118.072 157.029C122.253 159.829 126.729 158.858 129.496 154.598C131.341 151.752 131.848 148.535 132.198 145.272C132.599 141.546 134.494 138.936 137.887 137.383C138.922 136.916 139.961 136.44 141.014 136.025C145.252 134.36 145.36 134.17 145.514 129.58C145.596 127.097 144.949 124.82 143.983 122.56C142.237 118.486 139.61 116.108 134.795 116.795C133.3 117.007 132.546 117.124 132.306 118.818C132.074 120.466 130.82 120.292 129.776 119.415C128.368 118.229 127.049 116.934 126.208 116.162L126.2 116.158ZM168.908 127.191C170.302 126.926 171.141 126.821 171.953 126.595C176.565 125.307 180.878 125.492 185.02 128.371C187.234 129.904 189.919 130.681 192.727 130.566C196.813 130.403 199.953 127.683 200.407 123.887C200.677 121.665 200.017 119.658 198.787 117.821C197.34 115.653 195.447 113.969 193.266 112.549C188.994 109.763 188.83 109.198 190.382 104.552C190.694 103.603 191.08 102.669 191.241 101.698C191.785 98.4221 191.379 95.3782 188.405 93.309C185.294 91.1444 181.972 91.207 178.665 92.8033C175.486 94.3448 174.163 97.064 174.407 100.501C174.529 102.194 175.019 103.859 175.304 105.54C175.993 109.605 174.914 111.271 170.932 112.508C169.393 112.991 167.608 112.806 165.998 113.966C169.169 117.857 169.627 122.159 168.908 127.191ZM147.66 133.759C151.019 132.824 153.741 132.1 156.444 131.291C158.617 130.636 160.756 129.888 162.9 129.164C163.707 128.894 164.511 128.582 164.92 127.744C166.729 124.061 167.179 119.543 164.207 115.714C163.392 114.67 162.388 113.911 160.946 114.105C155.348 114.84 149.744 115.582 143.684 116.379C147.301 121.692 149.962 126.799 147.655 133.767L147.66 133.759Z" fill="#F8F7FF"/>
<path d="M33.3583 149.86C31.0777 149.155 29.5497 148.765 28.0788 148.217C22.1061 145.988 17.872 142.039 16.1197 135.781C14.4654 129.89 12.7474 124.001 11.3629 118.043C9.49631 109.999 9.457 101.944 12.3076 94.0687C12.8332 92.6141 13.4075 90.9645 14.4795 89.9617C16.9485 87.6677 17.4711 85.2123 16.546 82.0441C14.7854 76.0366 17.6881 71.7515 22.1426 68.1602C23.7032 66.9009 25.4041 65.8388 27.2477 65.0736C34.7942 61.9386 42.6157 59.8363 50.7571 58.9852C53.3257 58.7163 55.8566 58.9966 58.3836 59.6904C61.1741 60.45 62.8011 62.1445 63.2967 64.9712C63.4953 66.0929 63.6281 67.2253 63.8926 68.3364C64.5623 71.1165 65.3911 73.4767 68.6092 74.7665C72.1631 76.1941 74.0213 79.7123 75.7221 83.029C79.8282 91.0365 81.6039 99.6608 82.0137 108.548C82.2697 114.216 82.3684 119.863 83.0939 125.531C84.0163 132.69 81.706 138.834 75.0568 142.572C61.7753 150.051 47.6458 152.642 33.3583 149.86ZM65.7017 76.2482C64.376 80.9809 61.7462 84.0637 57.8724 85.9799C49.3474 90.2132 40.362 92.8178 30.7879 92.969C27.9492 93.0173 25.1124 92.7327 22.4446 91.4451C18.293 89.4449 17.8937 89.5975 16.3572 93.9082C15.7448 95.6384 15.3045 97.4746 15.1043 99.2897C13.8527 110.636 15.7178 121.688 18.5624 132.616C20.603 140.432 26.1504 144.547 33.737 145.846C47.308 148.17 60.0946 145.46 72.1596 139.056C76.7086 136.641 79.1125 132.871 79.1842 127.699C79.204 126.137 79.2536 124.563 79.0609 123.019C78.1276 115.543 77.1964 108.057 76.1059 100.595C75.2206 94.5176 73.7129 88.5822 70.9689 83.0409C69.779 80.6446 68.5444 78.2462 65.6953 76.2376L65.7017 76.2482ZM25.5708 76.0256C26.8903 76.0576 28.6094 76.2614 30.2943 76.1323C38.5506 75.5081 46.0953 72.7781 53.0137 68.2881C53.725 67.8259 54.3938 67.2811 55.0031 66.6853C55.6931 66.0196 56.6528 65.3581 56.093 64.2003C55.6651 63.3096 54.6856 63.3625 53.8505 63.3072C53.2916 63.2668 52.7201 63.3494 52.1444 63.3769C43.6349 63.7488 35.6096 65.9804 28.0298 69.7918C26.6472 70.4828 25.4008 71.4602 24.163 72.4036C23.526 72.8933 22.6171 73.4593 22.8326 74.4051C23.0886 75.5502 24.2594 75.6352 25.5793 76.0277L25.5708 76.0256ZM46.5572 75.9568C44.0021 77.076 40.7764 76.7214 39.72 78.6742C38.8312 80.3174 39.8983 83.0254 40.0979 85.2646C40.1279 85.5424 40.1112 85.8266 40.1306 86.1107C40.2359 87.3894 40.9162 87.8115 42.1376 87.4766C43.0872 87.2181 44.0559 86.9913 45.0011 86.7137C47.6862 85.9423 48.6804 84.2743 47.984 81.7099C47.5128 79.9434 47.0968 78.1728 46.5487 75.9547L46.5572 75.9568ZM50.5469 84.5029C52.4825 84.3824 53.92 83.3987 55.4343 82.6504C56.1968 82.2731 57.0058 81.7813 56.8158 80.7337C56.3138 77.8965 56.309 74.949 55.28 71.9802C53.2114 72.9955 51.5697 73.8201 49.9173 74.6151C49.0338 75.0433 48.5861 75.7154 48.8632 76.6675C49.605 79.2313 49.5204 81.9942 50.5469 84.5029ZM36.8005 78.6482C35.4536 78.8707 33.9134 79.0719 32.4029 79.4067C32.1353 79.466 31.7767 80.0703 31.8047 80.3926C32.0768 82.9203 32.4213 85.4479 32.7784 87.9607C32.8126 88.1855 33.0955 88.4994 33.3187 88.5461C35.0252 88.945 36.7695 88.7587 38.2945 88.0761C39.6559 87.4699 38.86 86.0999 38.7102 85.0354C38.49 83.4938 38.1762 81.9649 37.9921 80.4233C37.8979 79.679 37.7507 79.0386 36.792 78.6461L36.8005 78.6482ZM24.8171 79.045C24.3939 80.9215 25.2115 82.6753 25.449 84.4735C26.0395 88.9457 26.1182 88.9563 30.7516 88.2297C30.7498 86.211 29.7707 84.4169 29.3185 82.5021C28.5655 79.3319 28.5252 79.3488 24.8171 79.045ZM58.1565 80.717C61.5651 76.6483 62.0367 71.8646 59.9272 67.6891C58.9765 69.0736 56.9649 69.6797 57.1368 71.7048C57.3645 74.4466 57.7495 77.1736 58.1565 80.717ZM23.9555 87.056C23.4204 85.1114 22.9965 83.9154 22.7637 82.677C22.4926 81.3029 22.4382 79.8928 22.1862 78.5145C22.0922 78.0225 21.8132 77.3312 21.0889 77.5198C20.7617 77.6003 20.3881 78.0116 20.278 78.3445C19.5386 80.6918 21.1232 84.7633 23.9576 87.0475L23.9555 87.056Z" fill="#F8F7FF"/>
<path d="M56.8345 124.04C57.0011 125.037 57.1464 125.866 57.264 126.697C57.9354 131.243 56.5733 133.408 52.2143 134.591C50.9844 134.923 49.7055 135.163 48.4349 135.26C44.6234 135.552 42.8865 134.551 41.6741 130.87C40.7813 128.151 39.7362 126.151 36.3584 126.84C35.7105 126.976 34.9029 126.81 34.2758 126.536C30.3392 124.833 29.7601 121.328 29.71 117.657C29.6622 114.267 30.1182 111.029 33.9054 109.604C34.5723 109.356 35.2584 109.14 35.9552 109.026C37.5656 108.761 37.9005 107.89 37.8034 106.325C37.4539 100.597 38.8443 99.1152 44.6231 98.4672C49.0528 97.9781 52.8909 98.8099 55.2767 103C56.2748 104.754 57.8245 105.528 59.6906 106.048C65.1101 107.563 66.823 110.144 66.2735 115.71C65.762 120.907 63.6243 122.96 58.0665 123.627C57.7966 123.658 57.5439 123.803 56.8323 124.048L56.8345 124.04ZM47.3445 102.543C46.7771 102.465 46.2139 102.369 45.6466 102.327C41.7133 102.021 40.9194 102.85 41.3841 106.777C41.806 110.369 40.9806 111.614 37.397 112.62C35.7848 113.074 33.8681 113.01 33.4197 115.204C33.1342 116.602 33.0441 118.012 33.2367 119.447C33.6881 122.777 34.511 123.496 37.9276 123.447C41.9774 123.395 42.7407 123.919 44.1509 127.785C44.3916 128.449 44.6472 129.125 44.8093 129.814C45.2124 131.492 46.3391 132.043 47.9603 132.06C52.3374 132.108 54.4607 130.583 54.5799 126.198C54.6765 122.663 56.0984 120.802 59.2206 119.473C62.2621 118.178 62.9192 116.414 62.5016 112.877C62.1867 110.194 61.2805 109.049 58.6951 109.494C54.6289 110.191 52.256 108.445 50.5829 105.09C49.9102 103.733 48.8937 102.813 47.353 102.545L47.3445 102.543Z" fill="#F8F7FF"/>
</svg>
