<svg width="133" height="127" viewBox="0 0 133 127" fill="none" xmlns="http://www.w3.org/2000/svg">
<path d="M96.6093 32.1129C96.0771 25.181 94.7874 17.6811 96.1862 10.7628C96.855 7.45762 99.8505 3.58449 103.61 3.54343C108.824 3.49553 108.906 10.5643 108.687 14.1227C108.592 15.6418 110.4 15.9908 111.369 15.2381C114.153 13.0552 120.206 10.9818 122.573 14.7112C125.166 18.8033 119.974 22.7243 116.869 24.3461C110.161 27.8497 102.198 29.3484 94.9784 31.4423C93.0473 32.0034 93.8662 35.0349 95.8109 34.4738C102.341 32.5782 109.165 31.0659 115.511 28.5956C119.653 26.9807 124.143 24.2845 125.815 19.9187C127.261 16.1414 126.06 11.7003 122.198 10.0101C117.845 8.10771 112.502 10.058 109.158 13.0141C110.052 13.3837 110.946 13.7532 111.84 14.1295C111.901 9.66791 111.963 4.53567 108.094 1.53159C104.463 -1.28772 100.076 0.334071 96.7594 2.90704C93.2248 5.65108 92.4605 10.0237 92.2558 14.2527C91.9624 20.3019 92.3582 26.6317 93.9822 32.4688C94.378 33.8853 96.7389 33.6663 96.6229 32.1129H96.6093Z" fill="#F8F7FF"/>
<path d="M31.7504 27.1109C30.024 23.6416 25.2884 21.0754 21.358 22.3824C17.6322 23.621 16.1993 28.24 17.0318 31.7642C19.1198 40.578 32.0029 47.1404 40.3619 46.9898C41.1671 46.9762 41.8904 46.4356 42.1155 45.6486C44.5106 37.2796 44.6335 24.9691 39.1131 17.7087C37.0251 14.9578 33.7566 14.1093 30.8838 16.2785C27.4651 18.8583 27.8131 23.272 28.4614 27.0494C28.8708 29.4239 32.7125 28.4522 32.1189 26.0366C31.6958 24.319 31.2045 22.4303 31.9483 20.7264C32.9104 18.5162 34.7801 18.0919 36.5611 20.3295C38.2602 22.4646 39.0108 26.3445 39.2769 29.027C39.775 33.9813 40.0616 39.8937 38.6082 44.6838C39.352 44.2595 40.0957 43.8352 40.8463 43.411C35.0803 41.8371 29.8261 40.4411 25.1451 36.4379C23.0229 34.6246 20.3754 32.1542 20.894 29.0749C21.6377 24.6612 27.4856 26.6046 29.8671 28.5753C30.9111 29.4376 32.3782 28.3837 31.7504 27.1178V27.1109Z" fill="#F8F7FF"/>
<path d="M96.6093 32.1129C96.0771 25.181 94.7874 17.6811 96.1862 10.7628C96.855 7.45762 99.8505 3.58449 103.61 3.54343C108.824 3.49553 108.906 10.5643 108.687 14.1227C108.592 15.6418 110.4 15.9908 111.369 15.2381C114.153 13.0552 120.206 10.9818 122.573 14.7112C125.166 18.8033 119.974 22.7243 116.869 24.3461C110.161 27.8497 102.198 29.3484 94.9784 31.4423C93.0473 32.0034 93.8662 35.0349 95.8109 34.4738C102.341 32.5782 109.165 31.0659 115.511 28.5956C119.653 26.9807 124.143 24.2845 125.815 19.9187C127.261 16.1414 126.06 11.7003 122.198 10.0101C117.845 8.10771 112.502 10.058 109.158 13.0141C110.052 13.3837 110.946 13.7532 111.84 14.1295C111.901 9.66791 111.963 4.53567 108.094 1.53159C104.463 -1.28772 100.076 0.334071 96.7594 2.90704C93.2248 5.65108 92.4605 10.0237 92.2558 14.2527C91.9624 20.3019 92.3582 26.6317 93.9822 32.4688C94.378 33.8853 96.7389 33.6663 96.6229 32.1129H96.6093Z" fill="#F8F7FF"/>
<path d="M31.7504 27.1109C30.024 23.6416 25.2884 21.0754 21.358 22.3824C17.6322 23.621 16.1993 28.24 17.0318 31.7642C19.1198 40.578 32.0029 47.1404 40.3619 46.9898C41.1671 46.9762 41.8904 46.4356 42.1155 45.6486C44.5106 37.2796 44.6335 24.9691 39.1131 17.7087C37.0251 14.9578 33.7566 14.1093 30.8838 16.2785C27.4651 18.8583 27.8131 23.272 28.4614 27.0494C28.8708 29.4239 32.7125 28.4522 32.1189 26.0366C31.6958 24.319 31.2045 22.4303 31.9483 20.7264C32.9104 18.5162 34.7801 18.0919 36.5611 20.3295C38.2602 22.4646 39.0108 26.3445 39.2769 29.027C39.775 33.9813 40.0616 39.8937 38.6082 44.6838C39.352 44.2595 40.0957 43.8352 40.8463 43.411C35.0803 41.8371 29.8261 40.4411 25.1451 36.4379C23.0229 34.6246 20.3754 32.1542 20.894 29.0749C21.6377 24.6612 27.4856 26.6046 29.8671 28.5753C30.9111 29.4376 32.3782 28.3837 31.7504 27.1178V27.1109Z" fill="#F8F7FF"/>
<path d="M64.3062 79.9663C70.3724 81.6976 76.814 81.1433 83.0508 81.0612C86.0942 81.0201 89.1443 80.9517 92.1877 81.0406C94.8762 81.1159 98.9841 80.7601 101.42 81.8686C103.883 82.984 106.033 87.1788 107.616 89.3138C109.431 91.7704 111.212 94.2476 112.918 96.7863C116.575 102.213 120.11 107.721 123.665 113.216C124.436 111.861 125.214 110.513 125.985 109.158C115.265 108.597 104.614 108.987 93.8936 108.905C83.4125 108.823 72.7471 107.701 62.2864 108.611C59.1134 108.885 59.0383 113.456 62.2864 113.613C72.7812 114.126 83.3852 114.339 93.8936 114.421C104.586 114.51 115.313 113.668 125.985 114.551C128.046 114.722 129.302 112.142 128.305 110.493C124.689 104.512 120.772 98.7298 116.691 93.0638C114.651 90.2308 112.638 87.3772 110.571 84.5648C108.865 82.2518 107.063 79.1588 104.477 77.7834C102.239 76.5995 99.2161 76.5722 96.7391 76.2984C93.2863 75.9152 89.7994 75.8468 86.3262 75.8605C79.2023 75.8742 71.8395 75.7442 64.7702 76.5653C62.9415 76.7774 62.3 79.3983 64.313 79.9663H64.3062Z" fill="#F8F7FF"/>
<path d="M69.4104 76.5585C62.5458 75.7578 55.4219 75.9084 48.5095 75.8536C45.0363 75.8263 41.5494 75.8742 38.0898 76.2232C35.4422 76.49 32.0918 76.5106 29.7035 77.7765C27.2743 79.063 25.6025 81.8618 23.9989 84.031C21.9245 86.8366 19.9115 89.6902 17.8713 92.5232C13.6611 98.3739 9.59417 104.314 5.86845 110.486C4.8722 112.135 6.12775 114.708 8.1885 114.544C18.8607 113.661 29.5943 114.496 40.2802 114.414C50.7886 114.332 61.3926 114.12 71.8874 113.606C75.1286 113.449 75.0672 108.878 71.8874 108.604C61.4267 107.694 50.7613 108.816 40.2802 108.898C29.5602 108.987 18.9085 108.597 8.1885 109.152C8.95957 110.507 9.73747 111.855 10.5085 113.21C14.0568 107.715 17.5983 102.206 21.2558 96.7795C22.9617 94.2476 24.7427 91.7704 26.5578 89.307C28.2023 87.0762 30.2289 83.0046 32.7537 81.8618C35.142 80.7806 39.3863 81.1091 41.9861 81.0338C45.0294 80.9448 48.0796 81.0133 51.123 81.0543C57.3598 81.1433 63.8082 81.6907 69.8676 79.9594C71.8601 79.3915 71.2528 76.7706 69.4104 76.5585Z" fill="#F8F7FF"/>
<path d="M10.4471 108.762C2.56578 107.797 -5.32237 124.35 4.75618 125.144C8.1953 125.411 11.7095 125.26 15.1554 125.301C28.9461 125.459 42.7367 125.554 56.5273 125.76C61.5086 125.835 66.8037 126.41 71.7509 125.684C74.3371 125.301 74.2484 120.997 71.7509 120.532C68.3732 119.902 64.7362 120.19 61.3175 120.203C55.4833 120.217 49.6422 120.265 43.808 120.258C32.549 120.258 21.2831 120.272 10.024 120.231C8.49555 120.231 6.96022 120.265 5.43855 120.203C5.28842 120.203 4.51053 120.285 4.39453 120.142C4.78347 120.614 5.56137 117.685 5.6842 117.35C6.49621 115.105 7.54023 112.416 10.4608 112.402C12.8559 112.395 12.7126 109.042 10.4608 108.769L10.4471 108.762Z" fill="#F8F7FF"/>
<path d="M122.451 112.395C126.156 112.409 127.016 116.802 127.916 119.546C128.278 120.641 128.674 119.943 127.787 120.183C126.804 120.45 125.398 120.21 124.395 120.21C119.66 120.231 114.931 120.237 110.195 120.237C98.0493 120.244 85.91 120.231 73.7638 120.19C69.6492 120.176 65.2206 119.758 61.1537 120.511C58.6563 120.976 58.5607 125.281 61.1537 125.664C65.3571 126.287 69.8129 125.842 74.0436 125.773C80.915 125.671 87.7933 125.575 94.6647 125.513C105.624 125.411 116.692 125.732 127.637 125.144C130.837 124.973 133.314 123.563 132.959 119.977C132.447 114.811 128.258 108.036 122.444 108.748C120.199 109.022 120.042 112.375 122.444 112.382L122.451 112.395Z" fill="#F8F7FF"/>
<path d="M39.1541 75.9221C38.8471 72.7812 41.4674 70.8925 44.2446 72.6306C45.5206 73.4313 47.1378 72.1106 46.7489 70.7009C46.4828 69.7224 45.8004 68.6959 45.6366 67.7105C45.1044 64.508 47.1378 63.2284 49.8263 64.1932C51.2798 64.7133 52.4466 62.9067 51.7506 61.6818C48.1204 55.2905 60.3825 51.4105 59.4272 58.5478H62.8391C62.8937 56.5017 64.0537 54.8868 65.8415 53.9219C69.2533 52.0811 72.2625 54.7841 71.0752 58.3561C70.4133 60.3475 73.1155 61.1002 74.1936 59.6768C75.8586 57.4802 78.629 56.0706 81.3448 57.0902C84.4018 58.2398 85.7597 61.7913 83.4329 64.4601C82.2183 65.8492 83.7809 68.258 85.5005 67.1494C87.2337 66.034 89.2057 65.1444 91.2733 66.0203C93.682 67.0399 94.3576 69.2981 92.7608 71.3784C91.785 72.6512 93.3886 74.1908 94.6851 73.8897C97.203 73.3081 99.373 75.2926 99.3184 77.7902C99.2706 79.9937 102.682 79.9937 102.73 77.7902C102.839 72.6854 98.6769 69.4623 93.7775 70.5914C94.419 71.4263 95.0604 72.268 95.7018 73.1028C97.8922 70.2561 97.4146 66.3282 94.651 64.0221C91.3961 61.3123 87.0835 62.0582 83.7809 64.1932C84.4701 65.0897 85.1593 65.9861 85.8485 66.8825C89.1716 63.0778 88.6189 57.3776 84.1835 54.6472C79.5434 51.7869 74.296 53.9287 71.2458 57.9593C72.283 58.3972 73.327 58.8352 74.3642 59.28C75.845 54.8183 73.0677 49.7203 68.0182 49.8093C63.4123 49.8914 59.5432 54.1067 59.4272 58.5614C59.3658 60.8265 62.5593 60.6691 62.8391 58.5614C63.5146 53.4839 58.8131 49.9119 54.057 51.4037C48.9256 53.0186 46.0529 58.5888 48.796 63.42C49.4374 62.5851 50.0788 61.7434 50.7202 60.9086C47.9567 59.9164 44.8041 60.3338 42.9549 62.8178C40.6895 65.8561 42.5933 68.5043 43.4462 71.6247C44.2787 70.9815 45.118 70.3382 45.9505 69.695C41.0921 66.6567 35.1486 70.1329 35.7218 75.9426C35.9334 78.1119 39.352 78.1392 39.1337 75.9426L39.1541 75.9221Z" fill="#F8F7FF"/>
<path d="M50.1744 76.3122C50.2222 73.7735 52.0918 71.9327 54.719 72.5691C56.302 72.9523 56.3362 73.4587 57.9056 73.315C57.3597 72.8976 56.807 72.4802 56.2611 72.0559C56.7319 73.6572 56.8889 75.1421 56.8002 76.7981C56.6978 78.6868 59.8708 79.1795 60.1506 77.2497C60.5737 74.3551 59.9254 71.18 63.617 70.4615C67.8886 69.6335 69.151 72.8771 68.5573 76.6133C69.6559 76.9144 70.7477 77.2224 71.8463 77.5235C72.7266 71.8985 81.1811 73.1713 80.6898 78.5841C80.4919 80.7739 83.9038 80.7602 84.1016 78.5841C84.9409 69.3734 70.0381 67.1153 68.5573 76.6133C68.223 78.762 71.4983 79.6995 71.8463 77.5235C72.6242 72.6512 71.7303 67.5053 65.8893 66.9579C63.5419 66.7389 60.8534 67.3479 58.9837 68.8329C56.3635 70.9063 57.2778 73.4382 56.8548 76.3465C57.9738 76.497 59.0861 76.6476 60.2052 76.7981C60.3144 74.8342 60.096 73.0345 59.5433 71.1458C59.3454 70.4752 58.6426 69.8251 57.8988 69.8867C56.65 69.9962 55.5105 69.1134 54.2686 69.0176C52.897 68.915 51.5118 69.1955 50.3109 69.8661C47.9158 71.1937 46.8035 73.6503 46.7557 76.3054C46.7148 78.5088 50.1266 78.5088 50.1676 76.3054L50.1744 76.3122Z" fill="#F8F7FF"/>
<path d="M69.6286 67.5328C70.2496 65.7468 72.3649 64.3303 74.0845 65.7331C75.5448 66.9238 75.9269 69.1683 75.5789 70.9132C75.1422 73.0619 78.4312 73.9858 78.8679 71.8234C79.5844 68.2787 78.4312 63.7486 74.801 62.2295C71.123 60.6898 67.5542 63.1328 66.3396 66.6295C65.6163 68.7167 68.9122 69.6062 69.6286 67.5397V67.5328Z" fill="#F8F7FF"/>
<path d="M64.3062 79.9663C70.3724 81.6976 76.814 81.1433 83.0508 81.0612C86.0942 81.0201 89.1443 80.9517 92.1877 81.0406C94.8762 81.1159 98.9841 80.7601 101.42 81.8686C103.883 82.984 106.033 87.1788 107.616 89.3138C109.431 91.7704 111.212 94.2476 112.918 96.7863C116.575 102.213 120.11 107.721 123.665 113.216C124.436 111.861 125.214 110.513 125.985 109.158C115.265 108.597 104.614 108.987 93.8936 108.905C83.4125 108.823 72.7471 107.701 62.2864 108.611C59.1134 108.885 59.0383 113.456 62.2864 113.613C72.7812 114.126 83.3852 114.339 93.8936 114.421C104.586 114.51 115.313 113.668 125.985 114.551C128.046 114.722 129.302 112.142 128.305 110.493C124.689 104.512 120.772 98.7298 116.691 93.0638C114.651 90.2308 112.638 87.3772 110.571 84.5648C108.865 82.2518 107.063 79.1588 104.477 77.7834C102.239 76.5995 99.2161 76.5722 96.7391 76.2984C93.2863 75.9152 89.7994 75.8468 86.3262 75.8605C79.2023 75.8742 71.8395 75.7442 64.7702 76.5653C62.9415 76.7774 62.3 79.3983 64.313 79.9663H64.3062Z" fill="#F8F7FF"/>
<path d="M69.4104 76.5585C62.5458 75.7578 55.4219 75.9084 48.5095 75.8536C45.0363 75.8263 41.5494 75.8742 38.0898 76.2232C35.4422 76.49 32.0918 76.5106 29.7035 77.7765C27.2743 79.063 25.6025 81.8618 23.9989 84.031C21.9245 86.8366 19.9115 89.6902 17.8713 92.5232C13.6611 98.3739 9.59417 104.314 5.86845 110.486C4.8722 112.135 6.12775 114.708 8.1885 114.544C18.8607 113.661 29.5943 114.496 40.2802 114.414C50.7886 114.332 61.3926 114.12 71.8874 113.606C75.1286 113.449 75.0672 108.878 71.8874 108.604C61.4267 107.694 50.7613 108.816 40.2802 108.898C29.5602 108.987 18.9085 108.597 8.1885 109.152C8.95957 110.507 9.73747 111.855 10.5085 113.21C14.0568 107.715 17.5983 102.206 21.2558 96.7795C22.9617 94.2476 24.7427 91.7704 26.5578 89.307C28.2023 87.0762 30.2289 83.0046 32.7537 81.8618C35.142 80.7806 39.3863 81.1091 41.9861 81.0338C45.0294 80.9448 48.0796 81.0133 51.123 81.0543C57.3598 81.1433 63.8082 81.6907 69.8676 79.9594C71.8601 79.3915 71.2528 76.7706 69.4104 76.5585Z" fill="#F8F7FF"/>
<path d="M10.4471 108.762C2.56578 107.797 -5.32237 124.35 4.75618 125.144C8.1953 125.411 11.7095 125.26 15.1554 125.301C28.9461 125.459 42.7367 125.554 56.5273 125.76C61.5086 125.835 66.8037 126.41 71.7509 125.684C74.3371 125.301 74.2484 120.997 71.7509 120.532C68.3732 119.902 64.7362 120.19 61.3175 120.203C55.4833 120.217 49.6422 120.265 43.808 120.258C32.549 120.258 21.2831 120.272 10.024 120.231C8.49555 120.231 6.96022 120.265 5.43855 120.203C5.28842 120.203 4.51053 120.285 4.39453 120.142C4.78347 120.614 5.56137 117.685 5.6842 117.35C6.49621 115.105 7.54023 112.416 10.4608 112.402C12.8559 112.395 12.7126 109.042 10.4608 108.769L10.4471 108.762Z" fill="#F8F7FF"/>
<path d="M122.451 112.395C126.156 112.409 127.016 116.802 127.916 119.546C128.278 120.641 128.674 119.943 127.787 120.183C126.804 120.45 125.398 120.21 124.395 120.21C119.66 120.231 114.931 120.237 110.195 120.237C98.0493 120.244 85.91 120.231 73.7638 120.19C69.6492 120.176 65.2206 119.758 61.1537 120.511C58.6563 120.976 58.5607 125.281 61.1537 125.664C65.3571 126.287 69.8129 125.842 74.0436 125.773C80.915 125.671 87.7933 125.575 94.6647 125.513C105.624 125.411 116.692 125.732 127.637 125.144C130.837 124.973 133.314 123.563 132.959 119.977C132.447 114.811 128.258 108.036 122.444 108.748C120.199 109.022 120.042 112.375 122.444 112.382L122.451 112.395Z" fill="#F8F7FF"/>
<path d="M39.1541 75.9221C38.8471 72.7812 41.4674 70.8925 44.2446 72.6306C45.5206 73.4313 47.1378 72.1106 46.7489 70.7009C46.4828 69.7224 45.8004 68.6959 45.6366 67.7105C45.1044 64.508 47.1378 63.2284 49.8263 64.1932C51.2798 64.7133 52.4466 62.9067 51.7506 61.6818C48.1204 55.2905 60.3825 51.4105 59.4272 58.5478H62.8391C62.8937 56.5017 64.0537 54.8868 65.8415 53.9219C69.2533 52.0811 72.2625 54.7841 71.0752 58.3561C70.4133 60.3475 73.1155 61.1002 74.1936 59.6768C75.8586 57.4802 78.629 56.0706 81.3448 57.0902C84.4018 58.2398 85.7597 61.7913 83.4329 64.4601C82.2183 65.8492 83.7809 68.258 85.5005 67.1494C87.2337 66.034 89.2057 65.1444 91.2733 66.0203C93.682 67.0399 94.3576 69.2981 92.7608 71.3784C91.785 72.6512 93.3886 74.1908 94.6851 73.8897C97.203 73.3081 99.373 75.2926 99.3184 77.7902C99.2706 79.9937 102.682 79.9937 102.73 77.7902C102.839 72.6854 98.6769 69.4623 93.7775 70.5914C94.419 71.4263 95.0604 72.268 95.7018 73.1028C97.8922 70.2561 97.4146 66.3282 94.651 64.0221C91.3961 61.3123 87.0835 62.0582 83.7809 64.1932C84.4701 65.0897 85.1593 65.9861 85.8485 66.8825C89.1716 63.0778 88.6189 57.3776 84.1835 54.6472C79.5434 51.7869 74.296 53.9287 71.2458 57.9593C72.283 58.3972 73.327 58.8352 74.3642 59.28C75.845 54.8183 73.0677 49.7203 68.0182 49.8093C63.4123 49.8914 59.5432 54.1067 59.4272 58.5614C59.3658 60.8265 62.5593 60.6691 62.8391 58.5614C63.5146 53.4839 58.8131 49.9119 54.057 51.4037C48.9256 53.0186 46.0529 58.5888 48.796 63.42C49.4374 62.5851 50.0788 61.7434 50.7202 60.9086C47.9567 59.9164 44.8041 60.3338 42.9549 62.8178C40.6895 65.8561 42.5933 68.5043 43.4462 71.6247C44.2787 70.9815 45.118 70.3382 45.9505 69.695C41.0921 66.6567 35.1486 70.1329 35.7218 75.9426C35.9334 78.1119 39.352 78.1392 39.1337 75.9426L39.1541 75.9221Z" fill="#F8F7FF"/>
<path d="M50.1744 76.3122C50.2222 73.7735 52.0918 71.9327 54.719 72.5691C56.302 72.9523 56.3362 73.4587 57.9056 73.315C57.3597 72.8976 56.807 72.4802 56.2611 72.0559C56.7319 73.6572 56.8889 75.1421 56.8002 76.7981C56.6978 78.6868 59.8708 79.1795 60.1506 77.2497C60.5737 74.3551 59.9254 71.18 63.617 70.4615C67.8886 69.6335 69.151 72.8771 68.5573 76.6133C69.6559 76.9144 70.7477 77.2224 71.8463 77.5235C72.7266 71.8985 81.1811 73.1713 80.6898 78.5841C80.4919 80.7739 83.9038 80.7602 84.1016 78.5841C84.9409 69.3734 70.0381 67.1153 68.5573 76.6133C68.223 78.762 71.4983 79.6995 71.8463 77.5235C72.6242 72.6512 71.7303 67.5053 65.8893 66.9579C63.5419 66.7389 60.8534 67.3479 58.9837 68.8329C56.3635 70.9063 57.2778 73.4382 56.8548 76.3465C57.9738 76.497 59.0861 76.6476 60.2052 76.7981C60.3144 74.8342 60.096 73.0345 59.5433 71.1458C59.3454 70.4752 58.6426 69.8251 57.8988 69.8867C56.65 69.9962 55.5105 69.1134 54.2686 69.0176C52.897 68.915 51.5118 69.1955 50.3109 69.8661C47.9158 71.1937 46.8035 73.6503 46.7557 76.3054C46.7148 78.5088 50.1266 78.5088 50.1676 76.3054L50.1744 76.3122Z" fill="#F8F7FF"/>
<path d="M69.6286 67.5328C70.2496 65.7468 72.3649 64.3303 74.0845 65.7331C75.5448 66.9238 75.9269 69.1683 75.5789 70.9132C75.1422 73.0619 78.4312 73.9858 78.8679 71.8234C79.5844 68.2787 78.4312 63.7486 74.801 62.2295C71.123 60.6898 67.5542 63.1328 66.3396 66.6295C65.6163 68.7167 68.9122 69.6062 69.6286 67.5397V67.5328Z" fill="#F8F7FF"/>
<path d="M79.8506 90.9902C79.5436 88.0341 77.0461 85.4064 73.9072 85.8511C71.0072 86.2617 68.9328 89.2247 67.5612 91.8935C66.8038 89.8611 65.3162 88.2599 63.1122 87.4113C60.5329 86.4191 57.6806 86.8023 56.1248 89.2932C51.6757 96.4304 62.3275 102.096 67.3633 104.115C68.926 104.745 69.97 105.21 71.4166 104.402C73.2181 103.403 74.6851 100.954 75.9885 99.4208C78.0492 97.0052 80.2191 94.398 79.8575 90.9902H79.8506Z" fill="#F8F7FF"/>
</svg>
