<svg width="296" height="280" viewBox="0 0 296 280" fill="none" xmlns="http://www.w3.org/2000/svg">
<path d="M15.1885 56.8435C10.7202 56.9591 5.74884 53.8093 2.27863 43.1816C1.4713 33.6581 2.28895 20.5561 6.43307 11.7514C8.50761 7.34377 11.284 4.28335 14.8396 3.04901C18.3606 1.82665 23.148 2.22276 29.651 5.81879C36.2201 10.0175 38.6996 16.8107 38.376 24.3439C38.0492 31.9512 34.8437 40.1089 30.293 46.3957C25.6766 52.7731 20.0674 56.7173 15.1885 56.8435Z" stroke="#F8F7FF" stroke-width="4"/>
<path d="M105.147 120.913C104.742 116.975 107.658 113.284 111.344 111.842C113.143 111.138 114.891 111.077 116.277 111.631C117.589 112.155 118.859 113.342 119.59 115.752C119.96 117.301 119.495 118.872 118.3 120.354C117.079 121.868 115.19 123.145 113.142 123.881C111.072 124.625 109.102 124.728 107.691 124.243C106.445 123.815 105.453 122.884 105.147 120.913Z" stroke="#F8F7FF" stroke-width="4"/>
<path d="M88.6883 104.777C83.7929 107.98 80.7542 107.996 79.1184 107.218C77.4748 106.436 76.3291 104.406 76.2507 101.422C76.0926 95.4044 80.305 88.2418 88.1323 88.0516C90.073 88.2087 91.184 88.9827 91.8598 89.9728C92.6022 91.0606 92.9776 92.6507 92.9082 94.587C92.769 98.4728 90.8874 102.744 88.6883 104.777Z" stroke="#F8F7FF" stroke-width="4"/>
<path d="M52.7979 71.6493C49.476 69.3447 48.1264 65.9356 48.1828 62.1981C48.2415 58.312 49.8398 54.152 52.3176 50.9204C54.8187 47.6584 57.9615 45.6528 60.9219 45.4947C63.6875 45.347 66.9457 46.7912 69.9179 51.8959C72.2636 57.0382 70.8187 62.8487 67.1931 67.0109C63.6109 71.1233 58.1834 73.3051 52.7979 71.6493Z" stroke="#F8F7FF" stroke-width="4"/>
<path d="M135.71 150.875L135.72 150.899L135.73 150.924C136.412 152.545 135.717 154.248 134.327 155.212C133.65 155.681 132.926 155.878 132.299 155.823C131.753 155.776 131.147 155.529 130.574 154.845C130.324 154.302 130.312 153.613 130.628 152.79C130.973 151.889 131.661 150.999 132.484 150.375C133.334 149.73 134.078 149.549 134.523 149.604C134.794 149.637 135.285 149.785 135.71 150.875Z" stroke="#F8F7FF" stroke-width="4"/>
<path d="M238.309 189.567C230.216 195.606 216.761 191.572 209.26 186.51C200.335 180.488 198.875 170.281 198.213 160.308C198.131 159.045 199.567 157.987 200.751 158.379C216.526 163.599 230.063 173.765 239.545 187.369C240.993 189.444 237.6 191.385 236.164 189.345C227.262 176.688 214.37 167.159 199.684 162.237C200.528 161.594 201.378 160.951 202.222 160.308C202.761 168.942 203.728 178.226 211.604 183.417C215.143 185.75 219.193 187.392 223.365 188.17C228.329 189.099 232.378 188.041 237.072 186.626C238.948 186.065 239.686 188.538 238.315 189.567H238.309Z" fill="#F8F7FF"/>
<path d="M201.595 161.337C193.988 160.209 185.514 156.993 178.47 161.845C171.608 166.569 171.702 175.578 173.096 182.867C172.041 182.733 170.992 182.593 169.938 182.458C175.78 171.006 189.616 168.118 201.401 170.725C203.552 171.199 202.632 174.426 200.493 173.999C194.779 172.865 188.52 172.111 183.006 174.525C178.699 176.408 174.766 179.863 172.92 184.2C172.305 185.638 170.143 185.077 169.762 183.791C167.283 175.361 168.057 164.944 175.511 159.15C183.176 153.199 194.492 154.971 202.479 159.238C203.722 159.905 202.79 161.518 201.589 161.343L201.595 161.337Z" fill="#F8F7FF"/>
<path d="M237.236 184.762C240.149 187.924 242.165 192.373 243.853 196.296C245.493 200.101 246.531 204.071 246.947 208.192C247.685 215.494 246.9 226.899 239.586 230.898C233.398 234.283 225.498 231.085 223.195 224.479C220.728 217.405 223.131 206.713 227.45 200.779C228.598 199.201 230.919 200.528 230.075 202.311C227.204 208.367 224.022 214.979 225.75 221.889C226.6 225.291 228.821 228.057 232.425 228.624C235.672 229.132 238.959 227.519 240.6 224.678C243.94 218.878 243.987 210.326 242.686 203.96C241.333 197.336 237.535 192.151 235.097 186.013C234.617 184.808 236.416 183.867 237.242 184.767L237.236 184.762Z" fill="#F8F7FF"/>
<path d="M242.61 196.676C247.374 191.49 251.131 185.118 251.224 177.898C251.324 169.825 247.011 163.921 240.869 159.121C234.581 154.211 227.702 151.732 219.726 151.305C211.973 150.89 206.124 153.649 202.596 160.7C201.735 162.418 198.787 161.22 199.449 159.378C205.849 141.683 231.1 146.751 242.657 155.596C249.677 160.974 254.705 167.843 254.858 176.957C254.998 185.311 250.99 193.355 244.632 198.687C243.237 199.856 241.356 198.043 242.61 196.67V196.676Z" fill="#F8F7FF"/>
<path d="M243.864 158.209C243.7 157.069 243.272 155.345 242.499 154.462C241.585 153.422 239.709 153.907 238.719 154.521C238.42 153.427 238.127 152.334 237.828 151.241C239.92 151.2 242.042 151.931 243.507 153.462C244.749 154.76 243.091 157.181 241.503 156.052C240.342 155.228 239.282 154.719 237.828 154.76C236.023 154.807 235.508 152.381 236.938 151.481C239.293 149.996 243.003 149.756 244.96 152.059C246.372 153.72 247.339 157.753 244.591 158.619C244.316 158.706 243.917 158.513 243.87 158.209H243.864Z" fill="#F8F7FF"/>
<path d="M209.711 149.668C219.615 146.722 231.446 153.901 238.291 160.682C241.514 163.874 243.384 168.241 243.343 172.783C243.296 178.249 240.33 182.926 237.371 187.304C236.152 189.111 233.187 187.392 234.429 185.592C236.978 181.891 239.832 177.881 240.067 173.233C240.289 168.796 238.32 164.903 235.08 161.962C227.825 155.368 219.697 152.235 209.98 151.644C208.867 151.574 208.592 150.002 209.711 149.668Z" fill="#F8F7FF"/>
<path d="M207.853 204.094C207.138 202.457 204.999 201.276 203.23 201.329C201.173 201.393 200.393 203.229 198.829 204.234C197.85 204.866 196.578 203.819 196.883 202.744C197.844 199.365 201.149 197.207 204.648 197.956C207.232 198.511 211.264 201.072 209.975 204.088C209.629 204.895 208.205 204.883 207.853 204.088V204.094Z" fill="#F8F7FF"/>
<path d="M173.694 180.64C173.307 184.189 172.2 187.48 171.063 190.859C170.049 193.864 169.129 197.038 167.3 199.669C165.49 202.282 162.296 204.071 161.446 207.268C160.38 211.29 162.7 215.108 166.439 216.587C169.352 217.739 172.504 216.815 175.37 217.943C176.876 218.534 177.972 219.691 179.261 220.621C180.732 221.679 182.344 222.269 184.119 222.556C187.237 223.064 190.478 222.561 193.361 221.31C196.162 220.089 198.26 217.791 200.979 216.552C201.823 216.166 202.802 216.797 202.567 217.768C201.067 224.029 191.638 226.285 186.164 225.987C182.496 225.788 179.074 224.561 176.085 222.474C172.75 220.147 168.443 221.772 164.769 219.913C158.563 216.768 155.744 208.701 160.087 202.884C161.106 201.516 162.436 200.44 163.573 199.178C165.326 197.243 166.316 194.887 167.23 192.472C168.789 188.357 170.043 184.13 172.012 180.184C172.393 179.418 173.782 179.752 173.682 180.634L173.694 180.64Z" fill="#F8F7FF"/>
<path d="M175.241 220.504C173.442 218.037 173.553 213.985 174.638 211.214C176.021 207.689 180.732 208.42 182.566 205.053V206.315C182.227 205.842 174.649 205.199 173.993 205.497C173.348 205.795 173.389 205.743 174.016 206.561C174.778 207.549 175.405 207.771 176.542 207.613C177.439 207.485 178.171 206.994 178.951 206.579C179.425 206.327 180.416 205.421 180.533 206.152C181.189 206.526 181.846 206.894 182.502 207.268C180.322 207.882 178.165 208.274 175.909 208.449C176.484 207.876 177.052 207.309 177.626 206.736C177.732 207.701 178.4 207.982 177.943 209.11C177.656 209.823 177.128 210.32 176.325 210.337C174.268 210.39 172.786 208.069 171.602 206.666C170.77 205.672 171.227 203.808 172.756 203.889C175.769 204.053 178.787 203.065 181.74 203.299C183.481 203.439 185.034 204.462 185.122 206.315C185.356 211.092 177.966 212.138 174.573 211.249C172.282 210.647 173.255 207.233 175.546 207.724C176.864 208.005 178.576 207.911 179.882 207.602C181.201 207.292 181.846 206.415 179.625 206.713C177.298 207.029 175.118 207.362 172.751 207.14C173.137 206.216 173.518 205.287 173.905 204.363C174.251 204.807 175.698 207.035 176.319 206.988C175.78 207.397 175.241 207.806 174.702 208.215C174.55 208.648 174.649 208.49 174.391 207.894C174.239 207.537 174.227 207.116 174.186 206.736C174.075 205.795 175.065 205.053 175.903 205.024C177.872 204.959 179.748 204.696 181.646 204.188C182.408 203.983 183.487 204.439 183.615 205.304C184.096 208.484 179.724 210.115 177.163 210.858C174.245 211.705 171.455 209.472 170.365 206.859C168.965 203.509 171.608 202.229 174.515 202.422C176.747 202.574 178.98 202.901 181.166 203.375C182.543 203.673 183.973 203.767 184.729 205.059C184.946 205.427 184.975 205.959 184.729 206.321C183.492 208.151 181.435 209.385 179.589 210.501C177.808 211.583 176.712 212.629 176.583 214.804C176.484 216.493 176.677 218.083 177.081 219.726C177.368 220.884 175.892 221.398 175.241 220.498V220.504Z" fill="#F8F7FF"/>
<path d="M190.273 225.332C185.684 227.852 186.03 233.879 182.215 237.112C179.314 239.567 175.024 240.011 171.532 238.696C163.474 235.668 161.933 224.625 167.353 218.516C168.215 217.546 170.125 218.569 169.621 219.831C168.138 223.52 166.802 226.724 168.349 230.664C169.709 234.13 172.821 236.317 176.618 235.75C183.897 234.668 181.816 223.216 189.64 222.976C190.888 222.941 191.368 224.73 190.278 225.326L190.273 225.332Z" fill="#F8F7FF"/>
<path d="M177.802 222.38C176.999 222.889 176.278 223.526 175.733 224.309C175.182 225.098 174.719 225.882 173.741 226.162C173.501 226.233 173.172 226.121 173.061 225.888C171.977 223.643 175.106 221.509 176.823 220.708C177.943 220.188 178.874 221.702 177.802 222.38Z" fill="#F8F7FF"/>
<path d="M224.256 257.163C224.121 262.091 223.723 267.23 222.199 271.954C220.91 275.946 217.505 278.495 213.409 279.319C202.813 281.447 202.145 266.932 202.784 260.215C202.983 258.122 206.3 258.116 206.077 260.215C205.462 266.125 205.714 279.828 215.342 275.151C218.659 273.538 219.31 270.632 220.101 267.306C220.921 263.863 221.672 260.384 222.31 256.9C222.51 255.801 224.285 256.064 224.25 257.163H224.256Z" fill="#F8F7FF"/>
<path d="M204.331 270.673C200.634 271.129 196.854 270.633 193.15 270.463C191.263 270.375 189.845 270.188 188.843 271.942C188.239 272.994 187.829 273.941 186.903 274.783C182.971 278.361 177.761 276.531 174.145 273.637C169.182 269.662 169.61 262.741 169.85 257.017C170.002 253.329 170.389 249.622 170.723 245.945C170.963 243.326 170.535 238.854 172.71 237.053C173.173 236.668 173.706 236.761 174.063 237.229C175.61 239.263 174.474 242.449 174.233 244.84C173.917 247.98 173.63 251.09 173.671 254.246C173.735 259.753 173.852 266.09 177.228 270.773C178.728 272.854 181.793 273.468 184.014 272.217C185.93 271.141 186.188 268.668 188.21 267.674C190.314 266.634 193.144 267.201 195.389 267.265C198.483 267.359 201.659 267.394 204.689 268.054C206.289 268.399 205.714 270.504 204.331 270.673Z" fill="#F8F7FF"/>
<path d="M239.229 228.951C239.035 235.177 242.698 240.701 244.433 246.512C245.962 251.639 246.542 257.31 244.579 262.401C240.922 271.889 230.491 275.397 221.086 273.52C218.525 273.012 219.603 269.083 222.164 269.61C231.933 271.621 241.883 266.295 242.358 255.655C242.575 250.832 241.051 246.197 239.346 241.754C237.688 237.445 235.859 233.318 237.066 228.665C237.371 227.478 239.264 227.706 239.223 228.957L239.229 228.951Z" fill="#F8F7FF"/>
<path d="M240.922 263.43C244.784 260.016 249.062 257.731 251.465 252.937C253.838 248.202 254.166 242.677 252.813 237.591H254.512C253.282 243.864 252.016 250.213 245.235 252.61C243.39 253.264 242.593 250.335 244.427 249.687C249.519 247.886 251.629 241.911 252.819 237.129C253.024 236.311 254.331 236.276 254.512 237.129C255.643 242.426 255.766 247.933 253.657 253.019C251.535 258.116 246.865 262.349 241.948 264.752C241.139 265.149 240.166 264.103 240.928 263.43H240.922Z" fill="#F8F7FF"/>
<path d="M193.648 158.519C195.33 160.577 196.508 163.167 197.703 165.528C198.764 167.627 200.165 169.843 199.883 172.269C199.866 172.409 199.743 172.491 199.608 172.427C197.434 171.345 196.373 169.001 195.23 166.972C193.929 164.663 192.406 162.22 191.661 159.671C191.345 158.595 192.88 157.572 193.648 158.513V158.519Z" fill="#F8F7FF"/>
<path d="M187.401 157.765C188.597 159.887 189.851 161.968 191.058 164.078C192.083 165.867 193.531 167.878 194.047 169.86C194.099 170.059 193.859 170.293 193.672 170.147C192.083 168.954 190.917 166.949 189.845 165.283C188.444 163.108 187.29 160.811 186.17 158.484C185.778 157.666 186.95 156.952 187.401 157.765Z" fill="#F8F7FF"/>
<path d="M182.648 158.414C184.084 160.659 185.52 162.904 186.956 165.148C188.04 166.844 189.716 168.656 189.862 170.702C189.88 170.942 189.587 171.082 189.393 170.971C187.63 169.93 186.745 167.58 185.713 165.873C184.342 163.593 182.977 161.308 181.605 159.028C181.201 158.361 182.232 157.765 182.648 158.42V158.414Z" fill="#F8F7FF"/>
<path d="M178.048 160.466C179.455 162.26 180.814 164.061 182.139 165.914C183.41 167.691 185.039 169.533 185.725 171.614C185.913 172.181 185.168 172.824 184.647 172.438C183.029 171.228 181.881 169.322 180.732 167.68C179.314 165.657 177.984 163.605 176.724 161.483C176.249 160.688 177.445 159.694 178.048 160.466Z" fill="#F8F7FF"/>
<path d="M174.643 166.131C175.892 167.276 177.281 168.434 178.312 169.778C179.121 170.831 180.539 172.292 180.351 173.707C180.299 174.087 179.97 174.309 179.607 174.134C178.423 173.561 177.908 171.889 177.216 170.825C176.255 169.334 175.417 167.884 174.227 166.546C173.975 166.265 174.362 165.873 174.643 166.131Z" fill="#F8F7FF"/>
<path d="M173.073 171.591C174.526 173.169 176.302 174.666 177.474 176.46C178.083 177.39 176.841 178.717 175.892 178.039C174.063 176.723 172.733 174.642 171.543 172.766C170.957 171.842 172.317 170.778 173.067 171.591H173.073Z" fill="#F8F7FF"/>
<path d="M248.183 166.201C251.131 169.276 252.578 173.035 252.238 177.302C252.01 180.126 247.603 181.178 246.952 178.015C245.862 172.766 243.8 167.873 240.43 163.664C238.795 161.618 236.861 160.01 234.939 158.256C232.823 156.327 230.397 153.281 227.286 153.258C227.526 152.381 227.76 151.504 228.001 150.627C235.918 155.041 243.718 160.343 247.415 168.919C250.885 176.969 251.113 186.282 246.589 193.963C245.042 193.063 243.489 192.157 241.942 191.256C244.702 187.053 246.056 182.628 246.888 177.711C247.339 175.016 251.951 175.613 251.705 178.36C251.113 184.972 249.906 190.409 245.095 195.343C243.876 196.594 241.667 196.301 240.805 194.793C238.777 191.227 238.016 188.222 238.795 184.142C239.651 179.635 240.659 175.221 242.036 170.848C242.833 168.317 246.437 168.861 246.595 171.462C247.005 178.179 246.788 184.469 244.901 190.976C243.911 194.396 238.473 192.905 239.551 189.503C241.374 183.75 242.522 177.507 241.954 171.456H246.595C246.202 174.993 245.634 178.401 244.896 181.88C244.556 183.464 244.081 185.071 243.929 186.685C243.729 188.778 244.52 190.245 245.523 192.028C244.093 191.847 242.663 191.66 241.233 191.479C244.479 188.176 247.292 183.131 246.8 178.349H251.693C251.723 183.943 249.73 189.374 246.577 193.951C244.644 196.763 240.09 194.22 241.93 191.245C246.009 184.651 245.722 176.127 242.68 169.165C239.41 161.694 232.232 157.882 226.278 152.837C225.24 151.96 226.184 150.54 227.28 150.423C230.602 150.072 232.935 151.867 235.695 153.416C238.549 155.017 240.993 156.894 243.231 159.32C247.685 164.143 250.814 170.153 252.145 176.577C250.381 176.817 248.617 177.051 246.859 177.29C247.081 174.525 246.448 171.895 244.655 169.72C242.651 167.288 245.921 163.827 248.189 166.195L248.183 166.201Z" fill="#F8F7FF"/>
<path d="M186.088 77.5249L198.329 83.6975C198.329 83.6975 186.653 90.7488 183.601 100.207C180.55 109.664 193.096 111.237 199.439 96.386L205.023 98.114C205.023 98.114 199.576 112.462 208.601 113.686C217.63 114.912 214.966 99.5184 214.966 99.5184C214.966 99.5184 224.036 98.8159 224.036 99.3615C224.035 99.9071 225.057 123.663 209.043 121.752C196.219 120.219 196.89 109.684 196.89 109.684C196.89 109.684 183.328 119.116 176.644 109.412C169.96 99.7077 186.08 77.5221 186.08 77.5221L186.088 77.5249Z" fill="#F8F7FF"/>
<path d="M238.38 104.717C233.305 102.982 227.633 106.128 225.714 111.744C223.794 117.361 226.354 123.32 231.43 125.054C236.506 126.789 242.177 123.644 244.097 118.027C246.016 112.41 243.456 106.452 238.38 104.717ZM231.702 118.907C229.415 118.126 228.266 115.443 229.129 112.916C229.993 110.39 232.548 108.973 234.83 109.753C237.112 110.533 238.266 113.217 237.402 115.744C236.539 118.27 233.984 119.687 231.702 118.907Z" fill="#F8F7FF"/>
<path d="M261.295 107.275C256.22 105.541 250.548 108.686 248.629 114.303C246.709 119.919 249.269 125.878 254.345 127.613C259.421 129.347 265.092 126.202 267.012 120.585C268.931 114.969 266.371 109.01 261.295 107.275ZM254.617 121.465C252.33 120.684 251.181 118.001 252.045 115.475C252.908 112.948 255.463 111.531 257.745 112.311C260.027 113.091 261.181 115.775 260.317 118.302C259.454 120.829 256.899 122.245 254.617 121.465Z" fill="#F8F7FF"/>
<path d="M281.973 103.596C278.062 105.192 276.393 109.382 275.423 113.958L272.756 112.755L270.466 118.125L274.471 119.679C274.266 121.094 274.068 122.46 273.828 123.706C272.197 132.201 266.193 136.482 266.193 136.482L271.133 140.367C271.133 140.367 277.529 139.722 280.587 124.66C280.76 123.813 280.935 123.016 281.107 122.256L284.419 123.541L286.058 118.745L282.526 117.153C285.105 109.607 288 109.897 291.399 112.424L295.311 108.149C295.311 108.149 288.727 100.829 281.97 103.59L281.973 103.596Z" fill="#F8F7FF"/>
</svg>
