<svg width="548" height="282" viewBox="0 0 548 282" fill="none" xmlns="http://www.w3.org/2000/svg">
<g clip-path="url(#clip0_34_1424)">
<path d="M109.756 182.181C106.761 180.138 103.756 178.105 100.761 176.061C101.318 178.181 101.876 180.301 102.422 182.411C123.888 144.824 156.665 115.981 183.333 82.3403C190.033 73.8808 195.717 64.088 203.553 56.6231C211.575 48.9834 222.406 46.4259 233.085 45.0597C257.588 41.9339 282.3 40.0103 306.881 37.5184C335.297 34.633 364.02 30.5344 392.623 32.9389C391.53 32.4908 390.437 32.0317 389.333 31.5836C418.93 57.4429 446.013 87.2148 469.73 118.473C475.064 125.501 480.223 132.66 485.152 139.972C487.556 143.535 489.906 147.13 492.19 150.77C493.436 152.748 495.863 155.535 496.191 157.94C496.409 159.568 495.863 163.35 495.458 164.891C496.169 163.962 496.879 163.044 497.59 162.115C496.322 162.858 494.158 162.847 492.617 163.077C488.463 163.678 484.31 164.279 480.168 164.88C466.342 166.891 452.505 168.902 438.68 170.902C407.836 175.383 377.004 179.864 346.161 184.334C338.97 185.384 331.778 186.422 324.597 187.471C326.106 187.865 327.614 188.269 329.122 188.663C295.383 150.77 261.654 112.888 227.915 74.9956C223.062 69.5528 218.209 64.0989 213.357 58.656C211.794 56.9073 208.318 56.798 206.788 58.656C176.83 94.9092 146.883 131.162 116.926 167.416C112.663 172.574 108.39 177.744 104.127 182.903C100.346 187.482 106.881 194.084 110.696 189.471C140.654 153.218 170.601 116.965 200.558 80.7118C204.821 75.5531 209.094 70.3834 213.357 65.2247H206.788C235.62 97.6088 264.452 129.993 293.284 162.377C300.356 170.323 307.427 178.269 314.498 186.203C317.056 189.078 320.324 194.619 324.04 196.204C327.69 197.745 335.057 195.275 338.696 194.75C349.123 193.231 359.55 191.723 369.977 190.204C397.716 186.171 425.455 182.149 453.183 178.116C464.091 176.531 474.998 174.946 485.906 173.361C490.387 172.705 495.546 172.64 499.896 171.328C503.787 170.159 504.519 167.514 504.912 163.896C505.186 161.459 505.699 158.738 505.339 156.267C504.869 153.021 502.89 150.355 501.196 147.633C494.726 137.261 487.775 127.195 480.474 117.391C467.162 99.5324 452.768 82.4824 437.608 66.1646C426.996 54.7433 416.012 43.6389 404.623 32.9717C402.044 30.5563 399.486 28.1081 396.809 25.8129C391.694 21.4083 381.868 22.9165 375.485 22.9056C346.861 22.84 318.127 27.0916 289.688 29.977C275.371 31.4306 261.053 32.8843 246.735 34.3269C234.68 35.5511 222.188 36.2615 210.876 40.9939C199.87 45.5953 192.766 54.1531 185.924 63.5743C178.612 73.6513 170.808 83.2911 162.622 92.6796C146.545 111.118 129.484 128.714 114.467 148.059C107.133 157.513 100.335 167.339 94.389 177.733C93.0775 180.028 93.9628 182.662 96.0503 184.083C99.045 186.127 102.051 188.16 105.045 190.204C109.996 193.57 114.652 185.526 109.734 182.181H109.756Z" fill="white"/>
<path d="M207.247 51.6285C216.33 54.9074 223.226 61.7929 229.533 68.8534C236.724 76.9085 243.566 85.2805 250.397 93.6415C264.059 110.331 277.907 126.616 292.935 142.114C300.126 149.535 307.416 156.869 314.63 164.279C318.105 167.853 321.559 171.438 324.969 175.055C327.319 177.547 329.92 181.996 333.68 182.214C336.587 182.389 339.975 181.406 342.85 181.034C382.917 175.886 422.974 170.749 463.042 165.601C475.665 163.984 488.289 162.355 500.901 160.738C506.749 159.984 506.825 150.683 500.901 151.448C452.047 157.721 403.203 163.995 354.348 170.268C347.451 171.154 340.555 172.039 333.658 172.924C334.751 173.372 335.844 173.831 336.948 174.279C315.537 151.076 292.224 129.621 271.95 105.369C261.589 92.9748 251.599 80.2638 241.074 68.0009C232.156 57.596 222.92 47.4316 209.707 42.6663C204.078 40.6334 201.651 49.6065 207.236 51.6285H207.247Z" fill="white"/>
<path d="M119.188 166.115C120.008 185.285 120.839 204.445 121.658 223.615C121.855 228.315 122.063 233.015 122.259 237.714C122.423 241.485 121.953 245.966 123.582 249.474C124.544 251.551 125.812 252.491 127.866 253.048C136.359 255.387 146.283 255.3 154.993 256.24C190.919 260.109 226.877 263.672 262.846 267.093C277.754 268.514 292.661 269.934 307.58 271.159C311.471 271.475 315.384 271.869 319.297 272.011C320.04 272.044 320.816 272.131 321.559 272.044C321.953 272 322.51 271.978 322.893 271.858C323.253 271.749 323.658 271.508 324.018 271.388C325.953 270.71 323.712 270.404 323.942 271.246C324.455 273.137 322.171 271.454 323.428 271.738C325.8 272.262 330.39 270.35 332.729 269.88C338.828 268.656 344.915 267.442 351.014 266.218C368.381 262.743 385.748 259.267 403.115 255.803C431.412 250.141 459.981 245.223 488.114 238.807C488.649 238.687 489.185 238.589 489.721 238.49C491.699 238.097 493.131 235.944 493.131 234.009V168.334C493.131 162.355 483.84 162.344 483.84 168.334V234.009C484.977 232.512 486.114 231.025 487.25 229.528C464.069 234.162 440.877 238.807 417.695 243.441C387.191 249.54 356.687 255.639 326.171 261.748C324.357 262.109 322.193 262.24 320.455 262.896C318.368 263.672 318.007 264.535 320.412 262.918C320.86 262.612 321.636 263.103 321.297 262.786C321.188 262.677 320.422 262.786 320.248 262.776C318.947 262.644 317.624 262.644 316.324 262.557C304.586 261.77 292.858 260.622 281.142 259.53C245.271 256.207 209.411 252.644 173.584 248.917C160.994 247.605 148.403 246.316 135.834 244.807C134.938 244.698 134.031 244.589 133.134 244.48C132.643 244.414 130.489 244.108 131.954 244.327C131.276 244.228 130.325 244.261 129.692 243.966C130.03 244.13 131.211 244.687 131.834 244.228C132.391 243.813 131.528 237.201 131.506 236.632C131.309 231.932 131.101 227.233 130.905 222.533C130.5 213.134 130.096 203.723 129.692 194.324C129.287 184.925 128.883 175.514 128.478 166.115C128.227 160.158 118.926 160.126 119.188 166.115Z" fill="white"/>
<path d="M320.969 191.941C318.521 216.314 317.821 240.796 318.871 265.267C321.909 264.852 324.958 264.448 327.997 264.032C327.909 263.453 327.822 262.874 327.734 262.295C326.86 256.404 317.909 258.907 318.772 264.765C318.86 265.344 318.947 265.923 319.035 266.503C319.8 271.694 328.379 270.448 328.161 265.267C327.111 240.796 327.811 216.314 330.259 191.941C330.86 185.996 321.559 186.039 320.969 191.941Z" fill="white"/>
<path d="M169.934 248.414C168.743 231.167 167.42 213.505 170.393 196.368C171.814 188.204 174 179.722 178.109 172.476C180.732 167.853 184.951 161.732 189.05 158.311C194.886 153.437 204.296 151.601 211.707 151.721C220.406 151.852 228.221 155.022 235.402 159.754C241.642 163.874 248.014 167.864 250.834 175.066C253.217 181.165 254.758 187.919 255.84 194.357C257.621 204.904 257.348 215.986 257.49 226.654C257.632 237.244 257.545 247.824 257.25 258.415C257.086 264.393 266.376 264.393 266.54 258.415C267.119 237.222 268.201 214.981 265.108 193.952C263.961 186.149 262.059 177.963 258.999 170.673C255.742 162.913 249.785 158.443 243.02 153.743C227.795 143.185 209.892 138.922 192.23 146.18C177.923 152.06 168.732 167.547 164.305 181.788C157.627 203.286 159.103 226.293 160.633 248.425C161.048 254.36 170.338 254.404 169.923 248.425L169.934 248.414Z" fill="white"/>
<path d="M269.961 37.9555C280.049 49.8031 292.115 60.1643 302.848 71.4435C313.493 82.6135 323.854 94.0458 334.347 105.358C344.107 115.872 354.162 126.091 363.736 136.78C373.168 147.305 382.458 158.005 392.852 167.59C395.18 169.744 398.503 166.432 396.328 164.115C376.622 143.076 357.495 121.512 337.866 100.396C327.363 89.1056 316.969 77.7062 306.302 66.5581C295.755 55.5411 285.022 43.464 272.376 34.8078C270.387 33.4416 268.562 36.327 269.95 37.9555H269.961Z" fill="white"/>
<path d="M331.571 31.4746C341.134 42.7429 352.217 52.7434 361.911 63.9461C371.026 74.4822 379.781 85.3243 389.005 95.751C398.667 106.67 408.919 117.031 418.624 127.906C429.226 139.786 439.259 152.136 449.653 164.192C451.456 166.279 455.194 163.47 453.522 161.208C435.139 136.409 413.651 114.561 393.213 91.5432C383.967 81.1273 375.19 70.3071 366.064 59.7929C356.392 48.6558 346.238 36.7098 333.997 28.3269C332.008 26.9607 330.183 29.8461 331.571 31.4746Z" fill="white"/>
<path d="M209.849 64.1428C207.805 69.9682 208.428 76.7554 208.428 82.8541C208.428 89.685 208.395 96.516 208.329 103.347C208.198 117.009 207.903 130.671 207.903 144.333C207.903 147.764 213.051 147.732 213.215 144.333C213.882 130.682 214.045 117.009 214.122 103.347C214.155 96.8766 214.166 90.3954 214.155 83.9252C214.133 77.4877 214.8 70.2524 212.537 64.1318C212.056 62.8312 210.318 62.7984 209.849 64.1318V64.1428Z" fill="white"/>
<path d="M265.534 126.091C264.059 143.808 264.616 161.678 263.742 179.427C263.327 187.963 262.715 196.477 261.961 204.98C261.217 213.341 259.261 222.577 260.944 230.883C261.195 232.14 263.261 232.479 263.808 231.255C267.119 223.921 267.163 215.003 267.764 207.101C268.442 198.237 268.934 189.362 269.349 180.487C270.19 162.465 271.174 144.027 268.923 126.08C268.649 123.938 265.709 123.862 265.524 126.08L265.534 126.091Z" fill="white"/>
<path d="M164.611 200.882C166.338 186.99 165.06 172.312 165.202 158.311C165.355 144.048 165.584 129.764 166.666 115.544C166.907 112.32 161.759 112.287 161.617 115.544C160.972 129.796 160.546 144.048 160.436 158.311C160.327 172.279 159.005 187.001 160.611 200.882C160.906 203.461 164.295 203.45 164.622 200.882H164.611Z" fill="white"/>
<path d="M377.726 185.69C376.655 197.538 377.398 209.669 377.267 221.561C377.201 227.353 377.114 233.157 377.005 238.95C376.895 244.371 375.857 250.546 377.442 255.77C378.021 257.694 380.589 257.563 381.223 255.77C382.939 250.917 382.24 245.136 382.305 240.032C382.382 233.867 382.426 227.714 382.437 221.55C382.469 209.691 383.125 197.483 381.781 185.679C381.486 183.1 377.966 183.045 377.726 185.679V185.69Z" fill="white"/>
<path d="M434.199 177.241C432.439 182.16 432.92 187.799 432.92 192.969C432.92 198.783 432.931 204.598 432.986 210.412C433.084 222.019 433.106 233.692 433.849 245.288C434.078 248.84 439.412 248.906 439.423 245.288C439.467 233.67 439.008 222.03 438.866 210.412C438.789 204.598 438.756 198.783 438.734 192.969C438.723 187.799 439.259 182.192 437.565 177.241C436.997 175.569 434.789 175.613 434.21 177.241H434.199Z" fill="white"/>
<path d="M166.152 254.589C173.202 253.66 180.317 251.584 187.104 249.474C189.148 248.84 189.804 246.764 188.951 244.928C184.82 235.944 184.317 224.424 184.361 214.686C184.405 205.45 185.509 196.171 188.252 187.329C193.596 170.06 205.215 156.934 222.822 152.103C226.778 151.021 225.008 145.578 221.172 146.125C202.318 148.824 188.547 165.896 182.896 182.99C179.65 192.816 178.415 203.352 178.503 213.669C178.601 225.298 181.651 235.933 183.301 247.299C184.022 246.032 184.744 244.764 185.465 243.496C178.798 245.015 171.759 246.665 165.442 249.299C162.961 250.338 162.841 255.016 166.152 254.578V254.589Z" fill="white"/>
<path d="M176.328 175.121C180.426 172.837 184.634 170.782 188.777 168.607C192.383 166.716 196.81 165.197 199.389 161.951C199.87 161.339 199.63 160.246 198.701 160.29C194.678 160.454 191.083 163.033 187.684 165C183.377 167.503 179.268 170.312 175.115 173.045C173.825 173.886 174.962 175.886 176.328 175.121Z" fill="white"/>
<path d="M167.344 191.657C171.224 189.242 175.202 186.979 179.18 184.717C182.066 183.077 186.459 181.853 187.651 178.531C187.88 177.897 187.389 177.285 186.831 177.077C183.41 175.831 178.995 179.23 176.175 180.913C172.273 183.241 168.786 186.116 165.464 189.198C164.163 190.4 165.846 192.586 167.355 191.657H167.344Z" fill="white"/>
<path d="M166.557 202.806C169.825 201.418 173.06 200.03 176.251 198.478C178.743 197.264 181.683 196.412 182.721 193.669C182.995 192.947 182.415 192.128 181.738 191.931C178.984 191.144 176.273 193.231 173.934 194.521C170.841 196.226 167.89 198.106 164.95 200.062C163.201 201.221 164.71 203.582 166.557 202.806Z" fill="white"/>
<path d="M166.961 216.434C170.371 214.893 173.727 213.265 176.995 211.418C178.59 210.522 182.459 208.653 180.984 206.15C179.596 203.8 176.448 205.887 174.918 206.817C171.563 208.86 168.382 211.145 165.245 213.505C163.518 214.817 164.939 217.331 166.95 216.424L166.961 216.434Z" fill="white"/>
<path d="M166.797 228.403C171.235 227.965 175.934 226.107 179.891 224.107C182.416 222.829 180.634 218.402 177.934 219.473C173.945 221.058 169.486 222.785 165.912 225.167C164.6 226.031 164.939 228.599 166.786 228.414L166.797 228.403Z" fill="white"/>
<path d="M168.622 244.065C172.907 242.622 178.109 241.245 181.858 238.665C182.59 238.163 182.962 237.365 182.743 236.479C182.7 236.316 182.623 236.162 182.547 236.02C182.273 235.463 181.497 235.004 180.874 235.059C176.065 235.529 171.246 238.392 167.398 241.157C166.043 242.13 166.786 244.677 168.622 244.065Z" fill="white"/>
<path d="M109.756 182.181C106.761 180.138 103.756 178.105 100.761 176.061C101.318 178.181 101.876 180.301 102.422 182.411C123.888 144.824 156.665 115.981 183.333 82.3403C190.033 73.8808 195.717 64.088 203.553 56.6231C211.575 48.9834 222.406 46.4259 233.085 45.0597C257.588 41.9339 282.3 40.0103 306.881 37.5184C335.297 34.633 364.02 30.5344 392.623 32.9389C391.53 32.4908 390.437 32.0317 389.333 31.5836C418.93 57.4429 446.013 87.2148 469.73 118.473C475.064 125.501 480.223 132.66 485.152 139.972C487.556 143.535 489.906 147.13 492.19 150.77C493.436 152.748 495.863 155.535 496.191 157.94C496.409 159.568 495.863 163.35 495.458 164.891C496.169 163.962 496.879 163.044 497.59 162.115C496.322 162.858 494.158 162.847 492.617 163.077C488.463 163.678 484.31 164.279 480.168 164.88C466.342 166.891 452.505 168.902 438.68 170.902C407.836 175.383 377.004 179.864 346.161 184.334C338.97 185.384 331.778 186.422 324.597 187.471C326.106 187.865 327.614 188.269 329.122 188.663C295.383 150.77 261.654 112.888 227.915 74.9956C223.062 69.5528 218.209 64.0989 213.357 58.656C211.794 56.9073 208.318 56.798 206.788 58.656C176.83 94.9092 146.883 131.162 116.926 167.416C112.663 172.574 108.39 177.744 104.127 182.903C100.346 187.482 106.881 194.084 110.696 189.471C140.654 153.218 170.601 116.965 200.558 80.7118C204.821 75.5531 209.094 70.3834 213.357 65.2247H206.788C235.62 97.6088 264.452 129.993 293.284 162.377C300.356 170.323 307.427 178.269 314.498 186.203C317.056 189.078 320.324 194.619 324.04 196.204C327.69 197.745 335.057 195.275 338.696 194.75C349.123 193.231 359.55 191.723 369.977 190.204C397.716 186.171 425.455 182.149 453.183 178.116C464.091 176.531 474.998 174.946 485.906 173.361C490.387 172.705 495.546 172.64 499.896 171.328C503.787 170.159 504.519 167.514 504.912 163.896C505.186 161.459 505.699 158.738 505.339 156.267C504.869 153.021 502.89 150.355 501.196 147.633C494.726 137.261 487.775 127.195 480.474 117.391C467.162 99.5324 452.768 82.4824 437.608 66.1646C426.996 54.7433 416.012 43.6389 404.623 32.9717C402.044 30.5563 399.486 28.1081 396.809 25.8129C391.694 21.4083 381.868 22.9165 375.485 22.9056C346.861 22.84 318.127 27.0916 289.688 29.977C275.371 31.4306 261.053 32.8843 246.735 34.3269C234.68 35.5511 222.188 36.2615 210.876 40.9939C199.87 45.5953 192.766 54.1531 185.924 63.5743C178.612 73.6513 170.808 83.2911 162.622 92.6796C146.545 111.118 129.484 128.714 114.467 148.059C107.133 157.513 100.335 167.339 94.389 177.733C93.0775 180.028 93.9628 182.662 96.0503 184.083C99.045 186.127 102.051 188.16 105.045 190.204C109.996 193.57 114.652 185.526 109.734 182.181H109.756Z" fill="white"/>
<path d="M207.247 51.6285C216.33 54.9074 223.226 61.7929 229.533 68.8534C236.724 76.9085 243.566 85.2805 250.397 93.6415C264.059 110.331 277.907 126.616 292.935 142.114C300.126 149.535 307.416 156.869 314.63 164.279C318.105 167.853 321.559 171.438 324.969 175.055C327.319 177.547 329.92 181.996 333.68 182.214C336.587 182.389 339.975 181.406 342.85 181.034C382.917 175.886 422.974 170.749 463.042 165.601C475.665 163.984 488.289 162.355 500.901 160.738C506.749 159.984 506.825 150.683 500.901 151.448C452.047 157.721 403.203 163.995 354.348 170.268C347.451 171.154 340.555 172.039 333.658 172.924C334.751 173.372 335.844 173.831 336.948 174.279C315.537 151.076 292.224 129.621 271.95 105.369C261.589 92.9748 251.599 80.2638 241.074 68.0009C232.156 57.596 222.92 47.4316 209.707 42.6663C204.078 40.6334 201.651 49.6065 207.236 51.6285H207.247Z" fill="white"/>
<path d="M119.188 166.115C120.008 185.285 120.839 204.445 121.658 223.615C121.855 228.315 122.063 233.015 122.259 237.714C122.423 241.485 121.953 245.966 123.582 249.474C124.544 251.551 125.812 252.491 127.866 253.048C136.359 255.387 146.283 255.3 154.993 256.24C190.919 260.109 226.877 263.672 262.846 267.093C277.754 268.514 292.661 269.934 307.58 271.159C311.471 271.475 315.384 271.869 319.297 272.011C320.04 272.044 320.816 272.131 321.559 272.044C321.953 272 322.51 271.978 322.893 271.858C323.253 271.749 323.658 271.508 324.018 271.388C325.953 270.71 323.712 270.404 323.942 271.246C324.455 273.137 322.171 271.454 323.428 271.738C325.8 272.262 330.39 270.35 332.729 269.88C338.828 268.656 344.915 267.442 351.014 266.218C368.381 262.743 385.748 259.267 403.115 255.803C431.412 250.141 459.981 245.223 488.114 238.807C488.649 238.687 489.185 238.589 489.721 238.49C491.699 238.097 493.131 235.944 493.131 234.009V168.334C493.131 162.355 483.84 162.344 483.84 168.334V234.009C484.977 232.512 486.114 231.025 487.25 229.528C464.069 234.162 440.877 238.807 417.695 243.441C387.191 249.54 356.687 255.639 326.171 261.748C324.357 262.109 322.193 262.24 320.455 262.896C318.368 263.672 318.007 264.535 320.412 262.918C320.86 262.612 321.636 263.103 321.297 262.786C321.188 262.677 320.422 262.786 320.248 262.776C318.947 262.644 317.624 262.644 316.324 262.557C304.586 261.77 292.858 260.622 281.142 259.53C245.271 256.207 209.411 252.644 173.584 248.917C160.994 247.605 148.403 246.316 135.834 244.807C134.938 244.698 134.031 244.589 133.134 244.48C132.643 244.414 130.489 244.108 131.954 244.327C131.276 244.228 130.325 244.261 129.692 243.966C130.03 244.13 131.211 244.687 131.834 244.228C132.391 243.813 131.528 237.201 131.506 236.632C131.309 231.932 131.101 227.233 130.905 222.533C130.5 213.134 130.096 203.723 129.692 194.324C129.287 184.925 128.883 175.514 128.478 166.115C128.227 160.158 118.926 160.126 119.188 166.115Z" fill="white"/>
<path d="M320.969 191.941C318.521 216.314 317.821 240.796 318.871 265.267C321.909 264.852 324.958 264.448 327.997 264.032C327.909 263.453 327.822 262.874 327.734 262.295C326.86 256.404 317.909 258.907 318.772 264.765C318.86 265.344 318.947 265.923 319.035 266.503C319.8 271.694 328.379 270.448 328.161 265.267C327.111 240.796 327.811 216.314 330.259 191.941C330.86 185.996 321.559 186.039 320.969 191.941Z" fill="white"/>
<path d="M169.934 248.414C168.743 231.167 167.42 213.505 170.393 196.368C171.814 188.204 174 179.722 178.109 172.476C180.732 167.853 184.951 161.732 189.05 158.311C194.886 153.437 204.296 151.601 211.707 151.721C220.406 151.852 228.221 155.022 235.402 159.754C241.642 163.874 248.014 167.864 250.834 175.066C253.217 181.165 254.758 187.919 255.84 194.357C257.621 204.904 257.348 215.986 257.49 226.654C257.632 237.244 257.545 247.824 257.25 258.415C257.086 264.393 266.376 264.393 266.54 258.415C267.119 237.222 268.201 214.981 265.108 193.952C263.961 186.149 262.059 177.963 258.999 170.673C255.742 162.913 249.785 158.443 243.02 153.743C227.795 143.185 209.892 138.922 192.23 146.18C177.923 152.06 168.732 167.547 164.305 181.788C157.627 203.286 159.103 226.293 160.633 248.425C161.048 254.36 170.338 254.404 169.923 248.425L169.934 248.414Z" fill="white"/>
<path d="M269.961 37.9555C280.049 49.8031 292.115 60.1643 302.848 71.4435C313.493 82.6135 323.854 94.0458 334.347 105.358C344.107 115.872 354.162 126.091 363.736 136.78C373.168 147.305 382.458 158.005 392.852 167.59C395.18 169.744 398.503 166.432 396.328 164.115C376.622 143.076 357.495 121.512 337.866 100.396C327.363 89.1056 316.969 77.7062 306.302 66.5581C295.755 55.5411 285.022 43.464 272.376 34.8078C270.387 33.4416 268.562 36.327 269.95 37.9555H269.961Z" fill="white"/>
<path d="M331.571 31.4746C341.134 42.7429 352.217 52.7434 361.911 63.9461C371.026 74.4822 379.781 85.3243 389.005 95.751C398.667 106.67 408.919 117.031 418.624 127.906C429.226 139.786 439.259 152.136 449.653 164.192C451.456 166.279 455.194 163.47 453.522 161.208C435.139 136.409 413.651 114.561 393.213 91.5432C383.967 81.1273 375.19 70.3071 366.064 59.7929C356.392 48.6558 346.238 36.7098 333.997 28.3269C332.008 26.9607 330.183 29.8461 331.571 31.4746Z" fill="white"/>
<path d="M209.849 64.1428C207.805 69.9682 208.428 76.7554 208.428 82.8541C208.428 89.685 208.395 96.516 208.329 103.347C208.198 117.009 207.903 130.671 207.903 144.333C207.903 147.764 213.051 147.732 213.215 144.333C213.882 130.682 214.045 117.009 214.122 103.347C214.155 96.8766 214.166 90.3954 214.155 83.9252C214.133 77.4877 214.8 70.2524 212.537 64.1318C212.056 62.8312 210.318 62.7984 209.849 64.1318V64.1428Z" fill="white"/>
<path d="M265.534 126.091C264.059 143.808 264.616 161.678 263.742 179.427C263.327 187.963 262.715 196.477 261.961 204.98C261.217 213.341 259.261 222.577 260.944 230.883C261.195 232.14 263.261 232.479 263.808 231.255C267.119 223.921 267.163 215.003 267.764 207.101C268.442 198.237 268.934 189.362 269.349 180.487C270.19 162.465 271.174 144.027 268.923 126.08C268.649 123.938 265.709 123.862 265.524 126.08L265.534 126.091Z" fill="white"/>
<path d="M164.611 200.882C166.338 186.99 165.06 172.312 165.202 158.311C165.355 144.048 165.584 129.764 166.666 115.544C166.907 112.32 161.759 112.287 161.617 115.544C160.972 129.796 160.546 144.048 160.436 158.311C160.327 172.279 159.005 187.001 160.611 200.882C160.906 203.461 164.295 203.45 164.622 200.882H164.611Z" fill="white"/>
<path d="M377.726 185.69C376.655 197.538 377.398 209.669 377.267 221.561C377.201 227.353 377.114 233.157 377.005 238.95C376.895 244.371 375.857 250.546 377.442 255.77C378.021 257.694 380.589 257.563 381.223 255.77C382.939 250.917 382.24 245.136 382.305 240.032C382.382 233.867 382.426 227.714 382.437 221.55C382.469 209.691 383.125 197.483 381.781 185.679C381.486 183.1 377.966 183.045 377.726 185.679V185.69Z" fill="white"/>
<path d="M434.199 177.241C432.439 182.16 432.92 187.799 432.92 192.969C432.92 198.783 432.931 204.598 432.986 210.412C433.084 222.019 433.106 233.692 433.849 245.288C434.078 248.84 439.412 248.906 439.423 245.288C439.467 233.67 439.008 222.03 438.866 210.412C438.789 204.598 438.756 198.783 438.734 192.969C438.723 187.799 439.259 182.192 437.565 177.241C436.997 175.569 434.789 175.613 434.21 177.241H434.199Z" fill="white"/>
<path d="M166.152 254.589C173.202 253.66 180.317 251.584 187.104 249.474C189.148 248.84 189.804 246.764 188.951 244.928C184.82 235.944 184.317 224.424 184.361 214.686C184.405 205.45 185.509 196.171 188.252 187.329C193.596 170.06 205.215 156.934 222.822 152.103C226.778 151.021 225.008 145.578 221.172 146.125C202.318 148.824 188.547 165.896 182.896 182.99C179.65 192.816 178.415 203.352 178.503 213.669C178.601 225.298 181.651 235.933 183.301 247.299C184.022 246.032 184.744 244.764 185.465 243.496C178.798 245.015 171.759 246.665 165.442 249.299C162.961 250.338 162.841 255.016 166.152 254.578V254.589Z" fill="white"/>
<path d="M176.328 175.121C180.426 172.837 184.634 170.782 188.777 168.607C192.383 166.716 196.81 165.197 199.389 161.951C199.87 161.339 199.63 160.246 198.701 160.29C194.678 160.454 191.083 163.033 187.684 165C183.377 167.503 179.268 170.312 175.115 173.045C173.825 173.886 174.962 175.886 176.328 175.121Z" fill="white"/>
<path d="M167.344 191.657C171.224 189.242 175.202 186.979 179.18 184.717C182.066 183.077 186.459 181.853 187.651 178.531C187.88 177.897 187.389 177.285 186.831 177.077C183.41 175.831 178.995 179.23 176.175 180.913C172.273 183.241 168.786 186.116 165.464 189.198C164.163 190.4 165.846 192.586 167.355 191.657H167.344Z" fill="white"/>
<path d="M166.557 202.806C169.825 201.418 173.06 200.03 176.251 198.478C178.743 197.264 181.683 196.412 182.721 193.669C182.995 192.947 182.415 192.128 181.738 191.931C178.984 191.144 176.273 193.231 173.934 194.521C170.841 196.226 167.89 198.106 164.95 200.062C163.201 201.221 164.71 203.582 166.557 202.806Z" fill="white"/>
<path d="M166.961 216.434C170.371 214.893 173.727 213.265 176.995 211.418C178.59 210.522 182.459 208.653 180.984 206.15C179.596 203.8 176.448 205.887 174.918 206.817C171.563 208.86 168.382 211.145 165.245 213.505C163.518 214.817 164.939 217.331 166.95 216.424L166.961 216.434Z" fill="white"/>
<path d="M166.797 228.403C171.235 227.965 175.934 226.107 179.891 224.107C182.416 222.829 180.634 218.402 177.934 219.473C173.945 221.058 169.486 222.785 165.912 225.167C164.6 226.031 164.939 228.599 166.786 228.414L166.797 228.403Z" fill="white"/>
<path d="M168.622 244.065C172.907 242.622 178.109 241.245 181.858 238.665C182.59 238.163 182.962 237.365 182.743 236.479C182.7 236.316 182.623 236.162 182.547 236.02C182.273 235.463 181.497 235.004 180.874 235.059C176.065 235.529 171.246 238.392 167.398 241.157C166.043 242.13 166.786 244.677 168.622 244.065Z" fill="white"/>
</g>
<path d="M87.8875 209.977C83.2096 223.956 76.8596 237.224 73.0452 252.427C79.887 246.689 85.7671 241.312 93.3085 238.252C94.161 240.208 93.691 241.683 93.079 243.192C88.4011 254.843 79.1766 272.21 75.3732 275.947C77.2968 265.39 82.1057 256.755 86.3792 247.52C84.3791 249.509 82.3243 251.444 80.4117 253.509C78.4771 255.597 76.5863 257.739 74.8376 259.979C72.9905 262.373 71.2855 264.876 69.6133 267.401C68.0613 269.74 66.6186 272.144 64.9573 274.8C62.9135 273.051 63.8207 271.193 64.0283 269.674C65.6678 258.001 68.3455 246.602 73.0452 235.738C75.0125 231.202 76.8924 226.623 78.4006 221.759C75.5262 223.65 73.7665 226.524 71.8976 229.246C69.9849 232.033 68.1597 234.885 66.4656 237.803C64.6732 240.875 63.0119 244.022 61.4162 247.203C59.9079 250.23 58.5308 253.312 57.1755 256.416C55.7547 259.684 54.4759 263.007 53.077 266.275C51.7654 269.335 51.0441 272.581 50.3118 276.505C48.5194 275.106 48.727 273.849 48.6177 272.756C47.6341 262.668 47.0876 252.515 44.5629 242.634C42.0819 232.885 38.0598 223.89 31.2617 215.704C30.3436 217.813 31.513 219.136 31.9502 220.415C37.3713 236.525 39.59 252.93 36.945 269.849C36.4641 272.964 36.2127 276.111 32.7481 278.133C27.4691 264.504 24.9116 249.531 13.0203 239.224C20.0917 252.7 22.6164 266.887 20.5617 281.937C18.5397 281.653 19.0643 280.068 18.955 279.008C18.2555 272.45 17.261 265.947 15.6325 259.564C13.1296 249.782 8.79059 240.886 2.45147 232.984C1.62083 231.945 -0.0951011 231.038 0.99785 229.421C1.905 228.076 3.54443 228.47 4.9434 228.623C8.04738 228.972 10.6705 230.503 13.1952 232.186C20.2338 236.885 24.846 243.563 28.3981 251.083C30.4201 255.378 31.7753 259.914 33.5022 264.373C33.5896 244.569 32.1797 225.071 22.8132 207.015C25.775 205.496 27.6877 207.015 29.5348 208.305C33.9722 211.409 37.415 215.485 40.4534 219.923C46.6067 228.896 50.0495 238.929 51.7764 249.596C51.9184 250.46 52.0387 251.334 52.1698 252.263C54.312 251.75 54.2573 249.815 54.8694 248.493C60.2139 236.918 67.023 226.349 75.8978 217.169C79.1329 213.824 82.7397 211.037 87.8875 209.988V209.977Z" fill="#F8F7FF"/>
<path d="M490.309 72.3812C488.134 70.0532 488.079 68.0422 487.664 66.1623C485.117 54.6426 480.625 44.1503 471.762 35.9532C469.532 33.8875 467.171 32.0295 464.668 30.3135C462.668 28.9364 462.876 27.6467 464.92 26.3024C466.373 25.3515 467.98 25.3734 469.554 25.4171C481.292 25.7996 490.069 31.6032 497.02 40.6419C498.058 41.9972 498.943 43.4727 500.43 45.7023C502.091 28.3899 506.67 13.2635 518.103 0.738281C519.043 5.66749 518.802 10.5311 518.857 15.3838C518.912 20.3677 518.912 25.3515 518.912 30.3354C518.912 35.2755 518.912 40.2266 518.912 45.5165C520.879 44.8607 521.076 43.2759 521.677 42.1393C526.464 33.035 532.956 25.3078 540.683 18.608C542.355 17.1544 544.421 14.5204 546.552 15.9084C549.121 17.5697 546.552 20.0944 545.765 22.018C538.672 39.5599 534.213 57.8887 529.36 76.0973C528.737 78.4362 528.617 80.9827 526.42 83.9993C525.557 76.4033 527.01 69.9658 527.95 63.5065C528.901 56.9815 530.541 50.5987 532.705 44.3689C534.901 38.0298 537.295 31.7453 539.229 25.1985C530.901 34.27 524.158 44.4782 517.447 56.0744C513.381 40.5108 513.589 25.8106 515.742 10.5093C513.458 12.1487 513.163 14.1816 512.474 15.9084C507.545 28.2916 505.654 41.2758 504.955 54.4896C504.834 56.763 505.195 59.1784 503.435 61.1348C501.512 61.3206 501.26 59.6374 500.703 58.457C498.473 53.8011 496.178 49.1779 493.293 44.8826C488.353 37.5489 481.664 32.565 472.92 30.2698C476.461 33.9968 480.352 37.374 483.423 41.5054C486.659 45.8444 489.019 50.5769 490.014 55.9323C490.976 61.1238 491.533 66.3044 490.32 72.3812H490.309Z" fill="#F8F7FF"/>
<defs>
<clipPath id="clip0_34_1424">
<rect width="411.682" height="249.499" fill="white" transform="translate(93.7881 22.6763)"/>
</clipPath>
</defs>
</svg>
